M48
;Layer_Color=9474304
;FILE_FORMAT=4:2
METRIC,LZ
;TYPE=PLATED
T1F00S00C0.30
T2F00S00C0.95
T3F00S00C1.35
;TYPE=NON_PLATED
T4F00S00C3.10
%
T01
X002134Y00221
X002223
X002311
Y002299
Y002489
Y002565
X002184Y002858
X001753
Y002756
X00315Y002553
Y002426
Y002324
X003327Y002159
X003645Y002134
Y001867
X004864Y001638
X004242Y002781
T02
X005296Y00037
Y00062
Y001539
Y001789
Y002656
Y002906
T03
X001346Y000521
X001854
X000508Y001918
Y002426
T04
X000292Y000356
X00461
Y002972
X000292Y002959
M30
