G04*
G04 #@! TF.GenerationSoftware,Altium Limited,Altium Designer,22.1.2 (22)*
G04*
G04 Layer_Color=16711935*
%FSLAX44Y44*%
%MOMM*%
G71*
G04*
G04 #@! TF.SameCoordinates,4243E080-38CA-47FB-8023-FD6126139483*
G04*
G04*
G04 #@! TF.FilePolarity,Positive*
G04*
G01*
G75*
%ADD11C,0.1000*%
%ADD12C,0.1250*%
G36*
X165706Y217264D02*
X155706D01*
X165706Y227264D01*
Y227264D01*
Y217264D01*
D02*
G37*
G36*
X253064Y265176D02*
X263064D01*
X253064Y255176D01*
Y255176D01*
Y265176D01*
D02*
G37*
G36*
X373968Y228346D02*
X383968D01*
X373968Y218346D01*
Y218346D01*
Y228346D01*
D02*
G37*
D11*
X345826Y226490D02*
Y248490D01*
X333226Y226490D02*
Y248490D01*
X345826D01*
X333226Y226490D02*
X345826D01*
X125720Y267330D02*
X165720D01*
X125720Y217330D02*
X165720D01*
X125720D02*
Y267330D01*
X165720Y217330D02*
Y267330D01*
X114390Y120280D02*
Y196280D01*
X157140Y120280D02*
Y196280D01*
X114390D02*
X157140D01*
X114390Y120280D02*
X157140D01*
X548039Y70561D02*
X552039D01*
X548039Y53811D02*
Y70561D01*
Y53811D02*
X552039D01*
X548090Y28530D02*
X552090D01*
X548090D02*
Y45280D01*
X552090D01*
X496590Y13280D02*
X552090D01*
Y85530D01*
X496590D02*
X552090D01*
X496590Y13280D02*
Y85530D01*
X548039Y187401D02*
X552039D01*
X548039Y170651D02*
Y187401D01*
Y170651D02*
X552039D01*
X548090Y145370D02*
X552090D01*
X548090D02*
Y162120D01*
X552090D01*
X496590Y130120D02*
X552090D01*
Y202370D01*
X496590D02*
X552090D01*
X496590Y130120D02*
Y202370D01*
X227760Y154890D02*
X249760D01*
X227760Y142290D02*
X249760D01*
X227760D02*
Y154890D01*
X249760Y142290D02*
Y154890D01*
X6550Y183545D02*
X10550D01*
Y200295D01*
X6550D02*
X10550D01*
X6550Y250945D02*
X10550D01*
Y234195D02*
Y250945D01*
X6550Y234195D02*
X10550D01*
X95550Y162420D02*
Y266920D01*
X6050Y162420D02*
Y266920D01*
Y162420D02*
X95800D01*
X6050Y266920D02*
X95550D01*
X298840Y197930D02*
X315840D01*
X298840Y205930D02*
X315840D01*
Y197930D02*
Y205930D01*
X298840Y197930D02*
Y205930D01*
X321310Y173840D02*
Y186590D01*
X300990Y173840D02*
X321310D01*
X300990Y186590D02*
X321310D01*
X300990Y173840D02*
Y186590D01*
X193645Y7820D02*
Y11820D01*
X176895D02*
X193645D01*
X176895Y7820D02*
Y11820D01*
X126245Y7820D02*
Y11820D01*
X142995D01*
Y7820D02*
Y11820D01*
X110270Y96820D02*
X214770D01*
X110270Y7320D02*
X214770D01*
Y97070D01*
X110270Y7320D02*
Y96820D01*
X171953Y196530D02*
X203960D01*
X171960Y132530D02*
X203960D01*
Y196530D01*
X171953Y132594D02*
Y196530D01*
X548039Y299161D02*
X552039D01*
X548039Y282411D02*
Y299161D01*
Y282411D02*
X552039D01*
X548090Y257130D02*
X552090D01*
X548090D02*
Y273880D01*
X552090D01*
X496590Y241880D02*
X552090D01*
Y314130D01*
X496590D02*
X552090D01*
X496590Y241880D02*
Y314130D01*
X253050Y215030D02*
X293050D01*
X253050Y265030D02*
X293050D01*
Y215030D02*
Y265030D01*
X253050Y215030D02*
Y265030D01*
X373880Y175630D02*
X436380D01*
X373880Y228230D02*
X436380D01*
Y175630D02*
Y228230D01*
X373880Y175630D02*
Y228230D01*
X333630Y171960D02*
X349630D01*
X333630Y203960D02*
X349630D01*
X333630Y171960D02*
Y203960D01*
X349630Y171960D02*
Y203960D01*
X449580Y184404D02*
X467360D01*
Y212344D01*
X449580Y184404D02*
Y212344D01*
X467360D01*
D12*
X240225Y64513D02*
Y83694D01*
X307711Y7572D02*
X332857D01*
X240225Y64513D02*
X307711Y7572D01*
X425489Y84358D02*
Y103538D01*
X332857Y160480D02*
X358003D01*
X425489Y103538D01*
X240225Y84358D02*
Y103538D01*
X307711Y160480D02*
X332857D01*
X240225Y103538D02*
X307711Y160480D01*
X425372Y64561D02*
Y83742D01*
X332740Y7620D02*
X357886D01*
X425372Y64561D01*
M02*
