G04*
G04 #@! TF.GenerationSoftware,Altium Limited,Altium Designer,22.1.2 (22)*
G04*
G04 Layer_Physical_Order=1*
G04 Layer_Color=255*
%FSLAX44Y44*%
%MOMM*%
G71*
G04*
G04 #@! TF.SameCoordinates,4243E080-38CA-47FB-8023-FD6126139483*
G04*
G04*
G04 #@! TF.FilePolarity,Positive*
G04*
G01*
G75*
%ADD15R,1.3000X1.1000*%
%ADD16R,1.5500X0.6000*%
%ADD17R,2.4300X2.3700*%
%ADD18R,1.1000X1.3000*%
%ADD19R,0.5500X0.8000*%
%ADD20R,1.1500X1.4500*%
%ADD21R,2.2300X2.3700*%
%ADD22R,1.1400X0.4200*%
%ADD23R,1.2700X0.6100*%
%ADD24R,1.7500X1.6000*%
%ADD25R,1.2200X0.9100*%
%ADD26R,2.9200X2.7900*%
%ADD27R,3.8100X1.6500*%
%ADD45C,0.6350*%
%ADD46C,0.2540*%
%ADD47C,0.7620*%
%ADD48C,0.8890*%
%ADD49C,1.8000*%
%ADD50C,2.2000*%
%ADD51C,3.1000*%
%ADD52C,0.5000*%
G36*
X557225Y2845D02*
X2845D01*
Y327155D01*
X557225D01*
Y2845D01*
D02*
G37*
%LPC*%
G36*
X462787Y315220D02*
X459233D01*
X455748Y314527D01*
X452465Y313167D01*
X449510Y311193D01*
X446997Y308680D01*
X445023Y305725D01*
X443663Y302442D01*
X442970Y298957D01*
Y295403D01*
X443663Y291918D01*
X445023Y288635D01*
X446997Y285680D01*
X449510Y283167D01*
X452465Y281193D01*
X455748Y279833D01*
X459233Y279140D01*
X462787D01*
X466272Y279833D01*
X469555Y281193D01*
X472510Y283167D01*
X475023Y285680D01*
X476997Y288635D01*
X478357Y291918D01*
X479050Y295403D01*
Y298957D01*
X478357Y302442D01*
X476997Y305725D01*
X475023Y308680D01*
X472510Y311193D01*
X469555Y313167D01*
X466272Y314527D01*
X462787Y315220D01*
D02*
G37*
G36*
X368300Y316305D02*
X212090D01*
X210603Y316009D01*
X209343Y315167D01*
X181456Y287280D01*
X179958Y287578D01*
X179533Y288605D01*
X178115Y290023D01*
X176262Y290790D01*
X174258D01*
X172405Y290023D01*
X170987Y288605D01*
X170220Y286752D01*
Y285538D01*
X160443Y275761D01*
X159601Y274501D01*
X159305Y273014D01*
Y266160D01*
X159601Y264674D01*
X160443Y263413D01*
X162430Y261426D01*
Y255840D01*
X183010D01*
Y266920D01*
X167924D01*
X167075Y267769D01*
Y271405D01*
X169423Y273753D01*
X170668Y273505D01*
X170987Y272735D01*
X172405Y271317D01*
X174258Y270550D01*
X176262D01*
X178115Y271317D01*
X179533Y272735D01*
X180300Y274587D01*
Y275136D01*
X213699Y308535D01*
X366691D01*
X407463Y267763D01*
X408723Y266921D01*
X410210Y266625D01*
X436541D01*
X474905Y228261D01*
Y77470D01*
X475201Y75983D01*
X476043Y74723D01*
X514033Y36733D01*
X515293Y35891D01*
X516780Y35595D01*
X518050D01*
Y35511D01*
X518837Y32576D01*
X520356Y29944D01*
X522504Y27796D01*
X525136Y26277D01*
X528071Y25490D01*
X531109D01*
X534044Y26277D01*
X536676Y27796D01*
X538824Y29944D01*
X540344Y32576D01*
X541130Y35511D01*
Y38549D01*
X540344Y41484D01*
X538824Y44116D01*
X536676Y46264D01*
X534044Y47783D01*
X531109Y48570D01*
X528071D01*
X525136Y47783D01*
X522504Y46264D01*
X520356Y44116D01*
X519922Y43365D01*
X518389D01*
X482675Y79079D01*
Y158778D01*
X483945Y159396D01*
X485407Y158790D01*
X487412D01*
X489265Y159557D01*
X490683Y160975D01*
X491450Y162827D01*
Y163376D01*
X506937Y178863D01*
X507779Y180123D01*
X508075Y181610D01*
Y207941D01*
X532337Y232203D01*
X533179Y233463D01*
X533475Y234950D01*
Y254724D01*
X534044Y254876D01*
X536676Y256396D01*
X538824Y258544D01*
X540344Y261176D01*
X541130Y264111D01*
Y267149D01*
X540344Y270084D01*
X538824Y272716D01*
X536676Y274864D01*
X534044Y276383D01*
X531109Y277170D01*
X528071D01*
X525136Y276383D01*
X522504Y274864D01*
X520356Y272716D01*
X518837Y270084D01*
X518050Y267149D01*
Y264111D01*
X518837Y261176D01*
X520356Y258544D01*
X522504Y256396D01*
X525136Y254876D01*
X525705Y254724D01*
Y236559D01*
X501443Y212297D01*
X500601Y211037D01*
X500305Y209550D01*
Y183219D01*
X485956Y168870D01*
X485407D01*
X483945Y168264D01*
X482675Y168882D01*
Y229870D01*
X482379Y231357D01*
X481537Y232617D01*
X450085Y264069D01*
X450895Y265055D01*
X451903Y264381D01*
X453390Y264085D01*
X506930D01*
X508417Y264381D01*
X509677Y265223D01*
X524625Y280171D01*
X525136Y279876D01*
X528071Y279090D01*
X531109D01*
X534044Y279876D01*
X536676Y281396D01*
X538824Y283544D01*
X540344Y286176D01*
X541130Y289111D01*
Y292149D01*
X540344Y295084D01*
X538824Y297716D01*
X536676Y299864D01*
X534044Y301383D01*
X531109Y302170D01*
X528071D01*
X525136Y301383D01*
X522504Y299864D01*
X520356Y297716D01*
X518837Y295084D01*
X518050Y292149D01*
Y289111D01*
X518837Y286176D01*
X519131Y285665D01*
X505321Y271855D01*
X454999D01*
X445977Y280877D01*
X444717Y281719D01*
X443230Y282015D01*
X427423D01*
X427035Y282403D01*
X425182Y283170D01*
X423177D01*
X421325Y282403D01*
X419907Y280985D01*
X419140Y279132D01*
Y277127D01*
X419746Y275665D01*
X419128Y274395D01*
X411819D01*
X371047Y315167D01*
X369787Y316009D01*
X368300Y316305D01*
D02*
G37*
G36*
X30987Y313950D02*
X27433D01*
X23948Y313257D01*
X20665Y311897D01*
X17710Y309923D01*
X15197Y307410D01*
X13223Y304455D01*
X11863Y301172D01*
X11170Y297687D01*
Y294133D01*
X11863Y290648D01*
X13223Y287365D01*
X15197Y284410D01*
X17710Y281897D01*
X20665Y279923D01*
X23948Y278563D01*
X27433Y277870D01*
X30987D01*
X34472Y278563D01*
X37755Y279923D01*
X40710Y281897D01*
X43223Y284410D01*
X45197Y287365D01*
X46557Y290648D01*
X47250Y294133D01*
Y297687D01*
X46557Y301172D01*
X45197Y304455D01*
X43223Y307410D01*
X40710Y309923D01*
X37755Y311897D01*
X34472Y313257D01*
X30987Y313950D01*
D02*
G37*
G36*
X311150Y305547D02*
X215900D01*
X213670Y305103D01*
X211780Y303840D01*
X195270Y287330D01*
X194007Y285440D01*
X193563Y283210D01*
Y257684D01*
X190386Y254507D01*
X172720D01*
X171277Y254220D01*
X162430D01*
Y243140D01*
X166893D01*
Y241520D01*
X162430D01*
Y230440D01*
X166893D01*
Y228820D01*
X162430D01*
Y217740D01*
X171277D01*
X172720Y217453D01*
X174163Y217740D01*
X175515D01*
X175641Y216470D01*
X174300Y216203D01*
X172410Y214940D01*
X152776Y195307D01*
X150580D01*
Y203870D01*
X129441D01*
X125357Y207954D01*
Y217740D01*
X129010D01*
Y228820D01*
X124547D01*
Y230440D01*
X129010D01*
Y241520D01*
X124547D01*
Y243140D01*
X129010D01*
Y254220D01*
X124547D01*
Y255840D01*
X129010D01*
Y266920D01*
X120163D01*
X118720Y267207D01*
X69610D01*
X67380Y266763D01*
X65490Y265500D01*
X55356Y255367D01*
X52583Y256110D01*
X49017D01*
X45574Y255187D01*
X42486Y253405D01*
X39965Y250884D01*
X38183Y247796D01*
X37260Y244353D01*
Y240787D01*
X38183Y237344D01*
X39965Y234256D01*
X42486Y231735D01*
X45574Y229953D01*
X49017Y229030D01*
X52583D01*
X56026Y229953D01*
X59114Y231735D01*
X61635Y234256D01*
X63417Y237344D01*
X64340Y240787D01*
Y244353D01*
X63597Y247126D01*
X72024Y255553D01*
X112893D01*
Y254220D01*
X108430D01*
Y243140D01*
X112893D01*
Y241520D01*
X108430D01*
Y230440D01*
X112893D01*
Y228820D01*
X108430D01*
Y217740D01*
X113703D01*
Y205540D01*
X114147Y203310D01*
X115410Y201420D01*
X121200Y195629D01*
Y175090D01*
X150580D01*
Y183653D01*
X155190D01*
X157420Y184097D01*
X159310Y185360D01*
X173097Y199146D01*
X174270Y198660D01*
Y190500D01*
X186690D01*
Y203620D01*
X180646D01*
X179967Y204890D01*
X180036Y204993D01*
X180340D01*
X182570Y205437D01*
X184460Y206700D01*
X208302Y230541D01*
X209475Y230055D01*
Y224223D01*
X209087Y223835D01*
X208320Y221982D01*
Y219977D01*
X209087Y218125D01*
X210505Y216707D01*
X212358Y215940D01*
X214363D01*
X216215Y216707D01*
X216975Y217468D01*
X217805Y218012D01*
X218635Y217468D01*
X219395Y216707D01*
X221248Y215940D01*
X223253D01*
X225105Y216707D01*
X225865Y217468D01*
X226695Y218012D01*
X227525Y217468D01*
X228285Y216707D01*
X230138Y215940D01*
X232143D01*
X233995Y216707D01*
X235413Y218125D01*
X236097Y219778D01*
X236590Y220270D01*
X239110D01*
Y213165D01*
X255590D01*
Y219515D01*
Y225865D01*
Y232215D01*
Y235585D01*
X247350D01*
Y238125D01*
X255590D01*
Y238565D01*
Y244915D01*
Y251265D01*
Y257615D01*
Y266895D01*
X253477D01*
Y273140D01*
X253033Y275370D01*
X251770Y277260D01*
X248435Y280595D01*
X248962Y281865D01*
X281601D01*
X294865Y268601D01*
Y266895D01*
X290510D01*
Y257615D01*
Y251265D01*
Y250825D01*
X298750D01*
X306990D01*
Y251703D01*
X311399D01*
X312105Y250997D01*
X313958Y250230D01*
X315963D01*
X317815Y250997D01*
X319233Y252415D01*
X320000Y254268D01*
Y256273D01*
X319233Y258125D01*
X317815Y259543D01*
X315963Y260310D01*
X313958D01*
X312105Y259543D01*
X312034Y259472D01*
X306990D01*
Y266895D01*
X302635D01*
Y270210D01*
X302339Y271697D01*
X301497Y272957D01*
X285957Y288497D01*
X284697Y289339D01*
X283210Y289635D01*
X221683D01*
X221295Y290023D01*
X219443Y290790D01*
X217437D01*
X216702Y290485D01*
X215982Y291562D01*
X218314Y293893D01*
X308736D01*
X333699Y268931D01*
Y255530D01*
X330486D01*
Y244944D01*
X321103Y235561D01*
X320721Y234990D01*
X319288Y235131D01*
X319233Y235265D01*
X317815Y236683D01*
X317525Y236803D01*
Y238177D01*
X317815Y238297D01*
X319233Y239715D01*
X320000Y241567D01*
Y243573D01*
X319233Y245425D01*
X317815Y246843D01*
X315963Y247610D01*
X313958D01*
X312105Y246843D01*
X312034Y246772D01*
X306990D01*
Y248285D01*
X298750D01*
X290510D01*
Y244915D01*
Y238565D01*
Y228040D01*
X283845D01*
X282358Y227744D01*
X281098Y226902D01*
X226013Y171817D01*
X225171Y170557D01*
X224875Y169070D01*
Y157630D01*
X220720D01*
Y155064D01*
X212090D01*
X209612Y154572D01*
X207512Y153168D01*
X202920Y148576D01*
X201650Y149102D01*
Y154220D01*
X174270D01*
Y125440D01*
X181486D01*
Y108092D01*
X138454Y65060D01*
X136403Y65610D01*
X132837D01*
X129394Y64687D01*
X126306Y62905D01*
X123785Y60384D01*
X122003Y57296D01*
X121080Y53853D01*
Y50287D01*
X122003Y46844D01*
X123785Y43756D01*
X126306Y41235D01*
X129394Y39453D01*
X132837Y38530D01*
X136403D01*
X139846Y39453D01*
X142934Y41235D01*
X145455Y43756D01*
X147237Y46844D01*
X148160Y50287D01*
Y53853D01*
X147610Y55904D01*
X192538Y100832D01*
X193942Y102932D01*
X194434Y105410D01*
Y125440D01*
X201650D01*
Y134496D01*
X204470D01*
X206948Y134988D01*
X209048Y136392D01*
X214772Y142116D01*
X220720D01*
Y139550D01*
X236800D01*
Y157630D01*
X232645D01*
Y167461D01*
X243768Y178585D01*
X244939Y177959D01*
X244875Y177640D01*
Y157630D01*
X240720D01*
Y139550D01*
X256800D01*
Y142116D01*
X261351D01*
X262766Y140701D01*
Y125872D01*
X250862Y113968D01*
X249458Y111868D01*
X248966Y109390D01*
Y100310D01*
X238300D01*
Y67330D01*
X272580D01*
Y100310D01*
X261914D01*
Y106708D01*
X273818Y118612D01*
X275222Y120712D01*
X275714Y123190D01*
Y143382D01*
X275222Y145860D01*
X273818Y147960D01*
X268610Y153168D01*
X266510Y154572D01*
X264032Y155064D01*
X256800D01*
Y157630D01*
X252645D01*
Y176031D01*
X289369Y212755D01*
X290510Y213165D01*
Y213165D01*
X290510Y213165D01*
X302422D01*
X302908Y211992D01*
X299386Y208470D01*
X294300D01*
Y195390D01*
X295705D01*
Y190130D01*
X293860D01*
Y170550D01*
X310440D01*
Y190130D01*
X303475D01*
Y195390D01*
X304880D01*
Y202976D01*
X308627Y206723D01*
X309800Y206237D01*
Y195390D01*
X319510D01*
X320455Y195161D01*
X320745Y194271D01*
Y190130D01*
X311860D01*
Y170550D01*
X328440D01*
Y184445D01*
X328515Y184820D01*
Y193126D01*
X329070Y193557D01*
X330340Y192936D01*
Y191420D01*
X352920D01*
Y196133D01*
X358236D01*
X361916Y192454D01*
X361635Y190963D01*
X360217Y189545D01*
X359450Y187693D01*
Y185688D01*
X360217Y183835D01*
X361635Y182417D01*
X363488Y181650D01*
X364036D01*
X365553Y180133D01*
X366813Y179291D01*
X368300Y178995D01*
X369540D01*
Y177290D01*
X387320D01*
Y188470D01*
X370586D01*
X370512Y188608D01*
X371273Y189878D01*
X377802D01*
X378430Y189753D01*
X379621Y189990D01*
X387320D01*
Y201170D01*
X380125D01*
X378868Y201420D01*
X378993Y202690D01*
X387320D01*
Y213870D01*
X370804D01*
X370695Y214120D01*
X371525Y215390D01*
X377160D01*
Y219710D01*
X369540D01*
Y217234D01*
X368270Y216708D01*
X367345Y217633D01*
X365493Y218400D01*
X363488D01*
X361635Y217633D01*
X360217Y216215D01*
X359450Y214363D01*
Y212358D01*
X360217Y210505D01*
X361635Y209087D01*
X362570Y208700D01*
X362200Y207479D01*
X360650Y207787D01*
X352920D01*
Y212500D01*
X346405D01*
Y219450D01*
X348566D01*
Y235530D01*
X333719D01*
X333233Y236703D01*
X335979Y239450D01*
X348566D01*
Y255530D01*
X345353D01*
Y271344D01*
X344909Y273574D01*
X343646Y275465D01*
X315270Y303840D01*
X313380Y305103D01*
X311150Y305547D01*
D02*
G37*
G36*
X387320Y226570D02*
X379700D01*
Y222250D01*
X387320D01*
Y226570D01*
D02*
G37*
G36*
X377160D02*
X369540D01*
Y222250D01*
X377160D01*
Y226570D01*
D02*
G37*
G36*
X467110Y221560D02*
X459740D01*
Y215740D01*
X467110D01*
Y221560D01*
D02*
G37*
G36*
X457200D02*
X449830D01*
Y215740D01*
X457200D01*
Y221560D01*
D02*
G37*
G36*
X387320Y219710D02*
X379700D01*
Y215390D01*
X387320D01*
Y219710D01*
D02*
G37*
G36*
X467110Y213200D02*
X459740D01*
Y207380D01*
X467110D01*
Y213200D01*
D02*
G37*
G36*
X457200D02*
X449830D01*
Y207380D01*
X457200D01*
Y213200D01*
D02*
G37*
G36*
X52583Y205310D02*
X52070D01*
Y193040D01*
X64340D01*
Y193553D01*
X63417Y196996D01*
X61635Y200084D01*
X59114Y202605D01*
X56026Y204387D01*
X52583Y205310D01*
D02*
G37*
G36*
X49530D02*
X49017D01*
X45574Y204387D01*
X42486Y202605D01*
X39965Y200084D01*
X38183Y196996D01*
X37260Y193553D01*
Y193040D01*
X49530D01*
Y205310D01*
D02*
G37*
G36*
X201650Y203620D02*
X189230D01*
Y190500D01*
X201650D01*
Y203620D01*
D02*
G37*
G36*
X531109Y190410D02*
X530860D01*
Y180140D01*
X541130D01*
Y180389D01*
X540344Y183324D01*
X538824Y185956D01*
X536676Y188104D01*
X534044Y189624D01*
X531109Y190410D01*
D02*
G37*
G36*
X528320D02*
X528071D01*
X525136Y189624D01*
X522504Y188104D01*
X520356Y185956D01*
X518837Y183324D01*
X518050Y180389D01*
Y180140D01*
X528320D01*
Y190410D01*
D02*
G37*
G36*
X64340Y190500D02*
X52070D01*
Y178230D01*
X52583D01*
X56026Y179153D01*
X59114Y180935D01*
X61635Y183456D01*
X63417Y186544D01*
X64340Y189987D01*
Y190500D01*
D02*
G37*
G36*
X49530D02*
X37260D01*
Y189987D01*
X38183Y186544D01*
X39965Y183456D01*
X42486Y180935D01*
X45574Y179153D01*
X49017Y178230D01*
X49530D01*
Y190500D01*
D02*
G37*
G36*
X352920Y184500D02*
X342900D01*
Y175230D01*
X352920D01*
Y184500D01*
D02*
G37*
G36*
X340360D02*
X330340D01*
Y175230D01*
X340360D01*
Y184500D01*
D02*
G37*
G36*
X201650Y187960D02*
X189230D01*
Y174840D01*
X201650D01*
Y187960D01*
D02*
G37*
G36*
X186690D02*
X174270D01*
Y174840D01*
X186690D01*
Y187960D01*
D02*
G37*
G36*
X541130Y177600D02*
X530860D01*
Y167330D01*
X531109D01*
X534044Y168116D01*
X536676Y169636D01*
X538824Y171784D01*
X540344Y174416D01*
X541130Y177351D01*
Y177600D01*
D02*
G37*
G36*
X528320D02*
X518050D01*
Y177351D01*
X518837Y174416D01*
X520356Y171784D01*
X522504Y169636D01*
X525136Y168116D01*
X528071Y167330D01*
X528320D01*
Y177600D01*
D02*
G37*
G36*
X352920Y172690D02*
X342900D01*
Y163420D01*
X352920D01*
Y172690D01*
D02*
G37*
G36*
X340360D02*
X330340D01*
Y163420D01*
X340360D01*
Y172690D01*
D02*
G37*
G36*
X531109Y165410D02*
X528071D01*
X525136Y164624D01*
X522504Y163104D01*
X520356Y160956D01*
X518837Y158324D01*
X518050Y155389D01*
Y152351D01*
X518837Y149416D01*
X520356Y146784D01*
X522504Y144636D01*
X525136Y143117D01*
X528071Y142330D01*
X531109D01*
X534044Y143117D01*
X536676Y144636D01*
X538824Y146784D01*
X540344Y149416D01*
X541130Y152351D01*
Y155389D01*
X540344Y158324D01*
X538824Y160956D01*
X536676Y163104D01*
X534044Y164624D01*
X531109Y165410D01*
D02*
G37*
G36*
X150580Y141470D02*
X137160D01*
Y128350D01*
X150580D01*
Y141470D01*
D02*
G37*
G36*
X134620D02*
X121200D01*
Y128350D01*
X134620D01*
Y141470D01*
D02*
G37*
G36*
X150580Y125810D02*
X137160D01*
Y112690D01*
X150580D01*
Y125810D01*
D02*
G37*
G36*
X134620D02*
X121200D01*
Y112690D01*
X134620D01*
Y125810D01*
D02*
G37*
G36*
X531109Y73570D02*
X530860D01*
Y63300D01*
X541130D01*
Y63549D01*
X540344Y66484D01*
X538824Y69116D01*
X536676Y71264D01*
X534044Y72783D01*
X531109Y73570D01*
D02*
G37*
G36*
X528320D02*
X528071D01*
X525136Y72783D01*
X522504Y71264D01*
X520356Y69116D01*
X518837Y66484D01*
X518050Y63549D01*
Y63300D01*
X528320D01*
Y73570D01*
D02*
G37*
G36*
X438150Y236220D02*
X392430D01*
X388620Y232410D01*
Y111760D01*
X378460Y101600D01*
Y62230D01*
X448310D01*
Y146050D01*
X472440Y170180D01*
Y203200D01*
X447040D01*
Y227330D01*
X438150Y236220D01*
D02*
G37*
G36*
X187203Y65610D02*
X186690D01*
Y53340D01*
X198960D01*
Y53853D01*
X198037Y57296D01*
X196255Y60384D01*
X193734Y62905D01*
X190646Y64687D01*
X187203Y65610D01*
D02*
G37*
G36*
X184150D02*
X183637D01*
X180194Y64687D01*
X177106Y62905D01*
X174585Y60384D01*
X172803Y57296D01*
X171880Y53853D01*
Y53340D01*
X184150D01*
Y65610D01*
D02*
G37*
G36*
X541130Y60760D02*
X530860D01*
Y50490D01*
X531109D01*
X534044Y51276D01*
X536676Y52796D01*
X538824Y54944D01*
X540344Y57576D01*
X541130Y60511D01*
Y60760D01*
D02*
G37*
G36*
X528320D02*
X518050D01*
Y60511D01*
X518837Y57576D01*
X520356Y54944D01*
X522504Y52796D01*
X525136Y51276D01*
X528071Y50490D01*
X528320D01*
Y60760D01*
D02*
G37*
G36*
X198960Y50800D02*
X186690D01*
Y38530D01*
X187203D01*
X190646Y39453D01*
X193734Y41235D01*
X196255Y43756D01*
X198037Y46844D01*
X198960Y50287D01*
Y50800D01*
D02*
G37*
G36*
X184150D02*
X171880D01*
Y50287D01*
X172803Y46844D01*
X174585Y43756D01*
X177106Y41235D01*
X180194Y39453D01*
X183637Y38530D01*
X184150D01*
Y50800D01*
D02*
G37*
G36*
X462787Y53600D02*
X459233D01*
X455748Y52907D01*
X452465Y51547D01*
X449510Y49573D01*
X446997Y47060D01*
X445023Y44105D01*
X443663Y40822D01*
X442970Y37337D01*
Y33783D01*
X443663Y30298D01*
X445023Y27015D01*
X446997Y24060D01*
X449510Y21547D01*
X452465Y19573D01*
X455748Y18213D01*
X459233Y17520D01*
X462787D01*
X466272Y18213D01*
X469555Y19573D01*
X472510Y21547D01*
X475023Y24060D01*
X476997Y27015D01*
X478357Y30298D01*
X479050Y33783D01*
Y37337D01*
X478357Y40822D01*
X476997Y44105D01*
X475023Y47060D01*
X472510Y49573D01*
X469555Y51547D01*
X466272Y52907D01*
X462787Y53600D01*
D02*
G37*
G36*
X30987D02*
X27433D01*
X23948Y52907D01*
X20665Y51547D01*
X17710Y49573D01*
X15197Y47060D01*
X13223Y44105D01*
X11863Y40822D01*
X11170Y37337D01*
Y33783D01*
X11863Y30298D01*
X13223Y27015D01*
X15197Y24060D01*
X17710Y21547D01*
X20665Y19573D01*
X23948Y18213D01*
X27433Y17520D01*
X30987D01*
X34472Y18213D01*
X37755Y19573D01*
X40710Y21547D01*
X43223Y24060D01*
X45197Y27015D01*
X46557Y30298D01*
X47250Y33783D01*
Y37337D01*
X46557Y40822D01*
X45197Y44105D01*
X43223Y47060D01*
X40710Y49573D01*
X37755Y51547D01*
X34472Y52907D01*
X30987Y53600D01*
D02*
G37*
%LPD*%
D15*
X339526Y247490D02*
D03*
Y227490D02*
D03*
D16*
X118720Y261380D02*
D03*
Y248680D02*
D03*
Y235980D02*
D03*
Y223280D02*
D03*
X172720Y261380D02*
D03*
Y248680D02*
D03*
Y235980D02*
D03*
Y223280D02*
D03*
D17*
X135890Y127080D02*
D03*
Y189480D02*
D03*
D18*
X228760Y148590D02*
D03*
X248760D02*
D03*
D19*
X315090Y201930D02*
D03*
X299590D02*
D03*
D20*
X320150Y180340D02*
D03*
X302150D02*
D03*
D21*
X187960Y139830D02*
D03*
Y189230D02*
D03*
D22*
X298750Y217805D02*
D03*
Y224155D02*
D03*
Y230505D02*
D03*
Y236855D02*
D03*
Y243205D02*
D03*
Y249555D02*
D03*
Y255905D02*
D03*
Y262255D02*
D03*
X247350Y217805D02*
D03*
Y224155D02*
D03*
Y230505D02*
D03*
Y236855D02*
D03*
Y243205D02*
D03*
Y249555D02*
D03*
Y255905D02*
D03*
Y262255D02*
D03*
D23*
X431830Y182880D02*
D03*
Y195580D02*
D03*
Y208280D02*
D03*
Y220980D02*
D03*
X378430Y182880D02*
D03*
Y195580D02*
D03*
Y208280D02*
D03*
Y220980D02*
D03*
D24*
X341630Y173960D02*
D03*
Y201960D02*
D03*
D25*
X458470Y214470D02*
D03*
Y181770D02*
D03*
D26*
X255440Y83820D02*
D03*
X410040D02*
D03*
D27*
X411958Y190396D02*
D03*
Y213500D02*
D03*
D45*
X340578Y214597D02*
Y226438D01*
Y202757D02*
Y214597D01*
X339526Y227490D02*
X340578Y226438D01*
Y202757D02*
X341375Y201960D01*
X338875Y227490D02*
X339526D01*
X360650Y201960D02*
X366905Y195705D01*
X341630Y201960D02*
X360650D01*
X378305Y195705D02*
X378430Y195580D01*
X366905Y195705D02*
X378305D01*
X339526Y247490D02*
Y271344D01*
X311150Y299720D02*
X339526Y271344D01*
X215900Y299720D02*
X311150D01*
X199390Y283210D02*
X215900Y299720D01*
X199390Y255270D02*
Y283210D01*
X192800Y248680D02*
X199390Y255270D01*
X172720Y248680D02*
X192800D01*
X210820Y241300D02*
Y262890D01*
X176530Y210820D02*
X180340D01*
X210820Y241300D01*
X155190Y189480D02*
X176530Y210820D01*
X135590Y189480D02*
X155190D01*
X119530Y205540D02*
Y222470D01*
X69610Y261380D02*
X118720D01*
Y223280D02*
Y235980D01*
Y248680D02*
Y261380D01*
X172720Y235980D02*
Y248680D01*
Y223280D02*
Y235980D01*
X118720D02*
Y248680D01*
Y223280D02*
X119530Y222470D01*
X50800Y242570D02*
X69610Y261380D01*
X119530Y205540D02*
X135590Y189480D01*
X210820Y262890D02*
X224790Y276860D01*
X243930D01*
X247650Y264160D02*
Y273140D01*
X243930Y276860D02*
X247650Y273140D01*
X431830Y195580D02*
Y208280D01*
D46*
X339275Y215900D02*
X340578Y214597D01*
X332740Y215900D02*
X339275D01*
X324630Y195090D02*
X330558Y201018D01*
X340688D01*
X324630Y184820D02*
Y195090D01*
X320150Y180340D02*
X324630Y184820D01*
X315090Y201930D02*
X323850Y210690D01*
Y232814D02*
X338526Y247490D01*
X323850Y210690D02*
Y232814D01*
X314926Y232410D02*
X314960D01*
X298750Y236855D02*
X310481D01*
X314926Y232410D01*
X314643Y242887D02*
X314960Y242570D01*
X298750Y243205D02*
X299067Y242887D01*
X314643D01*
X306777Y230505D02*
X309880Y227402D01*
Y213470D02*
Y227402D01*
X298750Y230505D02*
X306777D01*
X338526Y247490D02*
X339526D01*
X368300Y182880D02*
X378430D01*
X364490Y186690D02*
X368300Y182880D01*
X167970Y261380D02*
X172720D01*
X166240Y263110D02*
X167970Y261380D01*
X166240Y263110D02*
Y263110D01*
X175260Y285084D02*
Y285750D01*
X163190Y273014D02*
X175260Y285084D01*
X163190Y266160D02*
Y273014D01*
Y266160D02*
X166240Y263110D01*
X213360Y232410D02*
X218440Y237490D01*
Y254000D02*
X220980Y256540D01*
X218440Y237490D02*
Y254000D01*
X220980Y256540D02*
X231140D01*
X213360Y220980D02*
Y232410D01*
X212090Y312420D02*
X368300D01*
X175260Y275590D02*
X212090Y312420D01*
X504190Y181610D02*
Y209550D01*
X486410Y163830D02*
X504190Y181610D01*
X529590Y234950D02*
Y265630D01*
X504190Y209550D02*
X529590Y234950D01*
X438150Y270510D02*
X478790Y229870D01*
Y77470D02*
X516780Y39480D01*
X478790Y77470D02*
Y229870D01*
X232410Y240030D02*
X235585Y243205D01*
X228600Y240030D02*
X232410D01*
X224790Y236220D02*
X228600Y240030D01*
X222250Y221158D02*
X224790Y223698D01*
Y236220D01*
X222250Y220980D02*
Y221158D01*
X235585Y243205D02*
X247350D01*
X234981Y224155D02*
X247350D01*
X231806Y220980D02*
X234981Y224155D01*
X231140Y220980D02*
X231806D01*
X247033Y230187D02*
X247350Y230505D01*
X231458Y230187D02*
X247033D01*
X231140Y229870D02*
X231458Y230187D01*
X368300Y312420D02*
X410210Y270510D01*
X438150D01*
X516780Y39480D02*
X527140D01*
X529590Y37030D01*
X506930Y267970D02*
X529590Y290630D01*
X453390Y267970D02*
X506930D01*
X443230Y278130D02*
X453390Y267970D01*
X424180Y278130D02*
X443230D01*
X231458Y256222D02*
X247033D01*
X231140Y256540D02*
X231458Y256222D01*
X231140Y248920D02*
X231458Y249237D01*
X247033D01*
X247350Y249555D01*
X247033Y256222D02*
X247350Y255905D01*
X299590Y203180D02*
X309880Y213470D01*
X299590Y201930D02*
Y203180D01*
Y182900D02*
Y201930D01*
Y182900D02*
X302150Y180340D01*
X288925Y217805D02*
X298750D01*
X248760Y177640D02*
X288925Y217805D01*
X248760Y148590D02*
Y177640D01*
X218440Y285750D02*
X283210D01*
X298750Y270210D01*
Y262255D02*
Y270210D01*
X364490Y213360D02*
X369570Y208280D01*
X378430D01*
X299067Y255588D02*
X314643D01*
X314960Y255270D01*
X298750Y255905D02*
X299067Y255588D01*
X228760Y169070D02*
X283845Y224155D01*
X298750D01*
X228760Y148590D02*
Y169070D01*
D47*
X431830Y104960D02*
Y182880D01*
X410040Y83820D02*
X410690D01*
X431830Y104960D01*
X431955Y182755D02*
X457485D01*
X431830Y182880D02*
X431955Y182755D01*
X457485D02*
X458470Y181770D01*
X248760Y148590D02*
X264032D01*
X269240Y143382D01*
Y123190D02*
Y143382D01*
X255440Y109390D02*
X269240Y123190D01*
X255440Y83820D02*
Y109390D01*
X204470Y140970D02*
X212090Y148590D01*
X228760D01*
X189100Y140970D02*
X204470D01*
X187960Y105410D02*
Y139830D01*
X134620Y52070D02*
X187960Y105410D01*
D48*
Y139830D02*
X189100Y140970D01*
D49*
X529590Y37030D02*
D03*
Y62030D02*
D03*
Y153870D02*
D03*
Y178870D02*
D03*
Y265630D02*
D03*
Y290630D02*
D03*
D50*
X50800Y242570D02*
D03*
Y191770D02*
D03*
X134620Y52070D02*
D03*
X185420D02*
D03*
D51*
X461010Y35560D02*
D03*
Y297180D02*
D03*
X29210Y295910D02*
D03*
Y35560D02*
D03*
D52*
X332740Y215900D02*
D03*
X314960Y232410D02*
D03*
Y242570D02*
D03*
X364490Y186690D02*
D03*
X213360Y220980D02*
D03*
X175260Y275590D02*
D03*
X486410Y163830D02*
D03*
X222250Y220980D02*
D03*
X231140D02*
D03*
X175260Y285750D02*
D03*
X231140Y229870D02*
D03*
X424180Y278130D02*
D03*
X231140Y256540D02*
D03*
Y248920D02*
D03*
X218440Y285750D02*
D03*
X314960Y255270D02*
D03*
X364490Y213360D02*
D03*
M02*
