G04*
G04 #@! TF.GenerationSoftware,Altium Limited,Altium Designer,22.1.2 (22)*
G04*
G04 Layer_Color=65535*
%FSLAX44Y44*%
%MOMM*%
G71*
G04*
G04 #@! TF.SameCoordinates,4243E080-38CA-47FB-8023-FD6126139483*
G04*
G04*
G04 #@! TF.FilePolarity,Positive*
G04*
G01*
G75*
%ADD10C,0.2500*%
%ADD11C,0.1000*%
%ADD12C,0.1250*%
%ADD13C,0.1270*%
%ADD14C,0.3000*%
D10*
X173970Y214780D02*
G03*
X173970Y214780I-1250J0D01*
G01*
X248600Y269855D02*
G03*
X248600Y269855I-1250J0D01*
G01*
D11*
X369630Y229355D02*
G03*
X369630Y229355I-500J0D01*
G01*
D12*
X345876Y235712D02*
Y239268D01*
X333176Y235712D02*
Y239268D01*
X129720Y267330D02*
X161720D01*
X129720Y217330D02*
X161720D01*
X129720D02*
Y267330D01*
X161720Y217330D02*
Y267330D01*
X114390Y140530D02*
Y176030D01*
X157369Y140637D02*
Y176137D01*
X495590Y86530D02*
X553090D01*
X495590Y12530D02*
Y86530D01*
Y12530D02*
X553090D01*
Y86530D01*
X495590Y203370D02*
X553090D01*
X495590Y129370D02*
Y203370D01*
Y129370D02*
X553090D01*
Y203370D01*
X236982Y154940D02*
X240538D01*
X236982Y142240D02*
X240538D01*
X5050Y267920D02*
X96550D01*
X5050Y161420D02*
X96550D01*
X5050D02*
Y267920D01*
X96550Y161420D02*
Y267920D01*
X306340Y198680D02*
X308340D01*
X306340Y205180D02*
X308340D01*
X109270Y6320D02*
Y97820D01*
X215770Y6320D02*
Y97820D01*
X109270Y6320D02*
X215770D01*
X109270Y97820D02*
X215770D01*
X204210Y150530D02*
Y178280D01*
X171710Y150780D02*
Y178530D01*
X495590Y315130D02*
X553090D01*
X495590Y241130D02*
Y315130D01*
Y241130D02*
X553090D01*
Y315130D01*
X257050Y215030D02*
X289050D01*
X257050Y265030D02*
X289050D01*
Y215030D02*
Y265030D01*
X257050Y215030D02*
Y265030D01*
X372755Y174505D02*
X437505D01*
X372755Y229355D02*
X437505D01*
Y174505D02*
Y176205D01*
Y227655D02*
Y229355D01*
X372755Y174505D02*
Y176205D01*
Y227655D02*
Y229355D01*
X333630Y184460D02*
Y191460D01*
X349630Y184460D02*
Y191460D01*
X449834Y189230D02*
Y207010D01*
X467106Y189230D02*
Y207010D01*
X449326Y174244D02*
X467106D01*
X358584Y161036D02*
X423418Y106426D01*
X332740Y161036D02*
X358584D01*
X358283Y6604D02*
X423418Y61468D01*
X332740Y6604D02*
X358283D01*
X307197D02*
X332740D01*
X242062Y61468D02*
X307197Y6604D01*
X306896Y161036D02*
X332740D01*
X242062Y106426D02*
X306896Y161036D01*
D13*
X92710Y308608D02*
Y304376D01*
X94826Y302260D01*
X96942Y304376D01*
Y308608D01*
X103290D02*
X99058D01*
Y302260D01*
X103290D01*
X99058Y305434D02*
X101174D01*
X105406Y302260D02*
Y308608D01*
X108580D01*
X109638Y307550D01*
Y305434D01*
X108580Y304376D01*
X105406D01*
X107522D02*
X109638Y302260D01*
X118102D02*
X120218D01*
X119160D01*
Y308608D01*
X118102Y307550D01*
X123392Y302260D02*
Y303318D01*
X124450D01*
Y302260D01*
X123392D01*
X128682Y307550D02*
X129740Y308608D01*
X131856D01*
X132914Y307550D01*
Y303318D01*
X131856Y302260D01*
X129740D01*
X128682Y303318D01*
Y307550D01*
X92710Y318556D02*
X93768Y319614D01*
X95884D01*
X96942Y318556D01*
Y317498D01*
X95884Y316440D01*
X94826D01*
X95884D01*
X96942Y315382D01*
Y314324D01*
X95884Y313266D01*
X93768D01*
X92710Y314324D01*
X99058Y313266D02*
Y317498D01*
X101174Y319614D01*
X103290Y317498D01*
Y313266D01*
Y316440D01*
X99058D01*
X115986Y313266D02*
X111754D01*
X115986Y317498D01*
Y318556D01*
X114928Y319614D01*
X112812D01*
X111754Y318556D01*
X122334D02*
X121276Y319614D01*
X119160D01*
X118102Y318556D01*
Y317498D01*
X119160Y316440D01*
X121276D01*
X122334Y315382D01*
Y314324D01*
X121276Y313266D01*
X119160D01*
X118102Y314324D01*
X130798Y319614D02*
Y313266D01*
X135030D01*
X137146D02*
X139262D01*
X138204D01*
Y317498D01*
X137146D01*
X148784Y319614D02*
X150899D01*
X149841D01*
Y313266D01*
X148784D01*
X150899D01*
X155131D02*
X157247D01*
X158305Y314324D01*
Y316440D01*
X157247Y317498D01*
X155131D01*
X154073Y316440D01*
Y314324D01*
X155131Y313266D01*
X160421D02*
Y317498D01*
X163595D01*
X164653Y316440D01*
Y313266D01*
X173117Y319614D02*
Y313266D01*
X176291D01*
X177349Y314324D01*
Y315382D01*
X176291Y316440D01*
X173117D01*
X176291D01*
X177349Y317498D01*
Y318556D01*
X176291Y319614D01*
X173117D01*
X180523Y317498D02*
X182639D01*
X183697Y316440D01*
Y313266D01*
X180523D01*
X179465Y314324D01*
X180523Y315382D01*
X183697D01*
X186871Y318556D02*
Y317498D01*
X185813D01*
X187929D01*
X186871D01*
Y314324D01*
X187929Y313266D01*
X192161Y318556D02*
Y317498D01*
X191103D01*
X193219D01*
X192161D01*
Y314324D01*
X193219Y313266D01*
X199567D02*
X197451D01*
X196393Y314324D01*
Y316440D01*
X197451Y317498D01*
X199567D01*
X200625Y316440D01*
Y315382D01*
X196393D01*
X202741Y317498D02*
Y313266D01*
Y315382D01*
X203799Y316440D01*
X204857Y317498D01*
X205915D01*
X209089D02*
Y314324D01*
X210147Y313266D01*
X213321D01*
Y312208D01*
X212263Y311150D01*
X211205D01*
X213321Y313266D02*
Y317498D01*
X226017Y318556D02*
X224959Y319614D01*
X222843D01*
X221785Y318556D01*
Y314324D01*
X222843Y313266D01*
X224959D01*
X226017Y314324D01*
X228133Y319614D02*
Y313266D01*
Y316440D01*
X229191Y317498D01*
X231307D01*
X232365Y316440D01*
Y313266D01*
X235539Y317498D02*
X237655D01*
X238713Y316440D01*
Y313266D01*
X235539D01*
X234481Y314324D01*
X235539Y315382D01*
X238713D01*
X240829Y317498D02*
Y313266D01*
Y315382D01*
X241887Y316440D01*
X242945Y317498D01*
X244003D01*
X249293Y311150D02*
X250351D01*
X251409Y312208D01*
Y317498D01*
X248235D01*
X247177Y316440D01*
Y314324D01*
X248235Y313266D01*
X251409D01*
X256698D02*
X254583D01*
X253525Y314324D01*
Y316440D01*
X254583Y317498D01*
X256698D01*
X257757Y316440D01*
Y315382D01*
X253525D01*
X259872Y317498D02*
Y313266D01*
Y315382D01*
X260931Y316440D01*
X261989Y317498D01*
X263046D01*
X516890Y91440D02*
Y97788D01*
X521122Y91440D01*
Y97788D01*
X523238D02*
X527470D01*
X525354D01*
Y91440D01*
X533818Y96730D02*
X532760Y97788D01*
X530644D01*
X529586Y96730D01*
Y92498D01*
X530644Y91440D01*
X532760D01*
X533818Y92498D01*
X492760Y124458D02*
Y118110D01*
X495934D01*
X496992Y119168D01*
Y120226D01*
X495934Y121284D01*
X492760D01*
X495934D01*
X496992Y122342D01*
Y123400D01*
X495934Y124458D01*
X492760D01*
X499108Y118110D02*
Y122342D01*
X501224Y124458D01*
X503340Y122342D01*
Y118110D01*
Y121284D01*
X499108D01*
X505456Y124458D02*
X509688D01*
X507572D01*
Y118110D01*
X522384Y123400D02*
X521326Y124458D01*
X519210D01*
X518152Y123400D01*
Y122342D01*
X519210Y121284D01*
X521326D01*
X522384Y120226D01*
Y119168D01*
X521326Y118110D01*
X519210D01*
X518152Y119168D01*
X524500Y124458D02*
Y118110D01*
X526616Y120226D01*
X528732Y118110D01*
Y124458D01*
X530848D02*
X532964D01*
X531906D01*
Y118110D01*
X530848D01*
X532964D01*
X536138Y124458D02*
X540370D01*
X538254D01*
Y118110D01*
X546717Y123400D02*
X545659Y124458D01*
X543544D01*
X542486Y123400D01*
Y119168D01*
X543544Y118110D01*
X545659D01*
X546717Y119168D01*
X548834Y124458D02*
Y118110D01*
Y121284D01*
X553065D01*
Y124458D01*
Y118110D01*
X485140Y288290D02*
X489372D01*
X485140Y265006D02*
X489372D01*
X487256Y267122D02*
Y262890D01*
X509692Y235160D02*
X508634Y236218D01*
X506518D01*
X505460Y235160D01*
Y230928D01*
X506518Y229870D01*
X508634D01*
X509692Y230928D01*
X511808Y236218D02*
Y229870D01*
Y233044D01*
X516040D01*
Y236218D01*
Y229870D01*
X522388Y235160D02*
X521330Y236218D01*
X519214D01*
X518156Y235160D01*
Y230928D01*
X519214Y229870D01*
X521330D01*
X522388Y230928D01*
Y233044D01*
X520272D01*
X530852Y236218D02*
Y229870D01*
X535084D01*
X541432Y236218D02*
X537200D01*
Y229870D01*
X541432D01*
X537200Y233044D02*
X539316D01*
X543548Y236218D02*
Y229870D01*
X546722D01*
X547780Y230928D01*
Y235160D01*
X546722Y236218D01*
X543548D01*
X86360Y13968D02*
Y7620D01*
X89534D01*
X90592Y8678D01*
Y9736D01*
X89534Y10794D01*
X86360D01*
X89534D01*
X90592Y11852D01*
Y12910D01*
X89534Y13968D01*
X86360D01*
X92708Y7620D02*
Y11852D01*
X94824Y13968D01*
X96940Y11852D01*
Y7620D01*
Y10794D01*
X92708D01*
X99056Y13968D02*
X103288D01*
X101172D01*
Y7620D01*
X101600Y189230D02*
X105832D01*
X101600Y245956D02*
X105832D01*
X103716Y248072D02*
Y243840D01*
X34290Y156208D02*
Y149860D01*
X37464D01*
X38522Y150918D01*
Y155150D01*
X37464Y156208D01*
X34290D01*
X44870Y155150D02*
X43812Y156208D01*
X41696D01*
X40638Y155150D01*
Y150918D01*
X41696Y149860D01*
X43812D01*
X44870Y150918D01*
X53334Y156208D02*
X55450D01*
X54392D01*
Y149860D01*
X53334D01*
X55450D01*
X58624D02*
Y156208D01*
X62856Y149860D01*
Y156208D01*
X102129Y119773D02*
X101827Y120377D01*
X101222Y120982D01*
X100618Y121284D01*
X99409D01*
X98804Y120982D01*
X98199Y120377D01*
X97897Y119773D01*
X97595Y118866D01*
Y117354D01*
X97897Y116447D01*
X98199Y115843D01*
X98804Y115238D01*
X99409Y114936D01*
X100618D01*
X101222Y115238D01*
X101827Y115843D01*
X102129Y116447D01*
X104518Y121284D02*
X107843D01*
X106029Y118866D01*
X106936D01*
X107541Y118563D01*
X107843Y118261D01*
X108145Y117354D01*
Y116750D01*
X107843Y115843D01*
X107239Y115238D01*
X106332Y114936D01*
X105425D01*
X104518Y115238D01*
X104215Y115540D01*
X103913Y116145D01*
X399870Y240664D02*
Y236130D01*
X400172Y235223D01*
X400777Y234618D01*
X401684Y234316D01*
X402288D01*
X403195Y234618D01*
X403800Y235223D01*
X404102Y236130D01*
Y240664D01*
X408879D02*
X405856Y236432D01*
X410390D01*
X408879Y240664D02*
Y234316D01*
X267941Y278764D02*
Y274230D01*
X268243Y273323D01*
X268848Y272718D01*
X269755Y272416D01*
X270359D01*
X271266Y272718D01*
X271871Y273323D01*
X272173Y274230D01*
Y278764D01*
X274531D02*
X277857D01*
X276043Y276346D01*
X276950D01*
X277554Y276043D01*
X277857Y275741D01*
X278159Y274834D01*
Y274230D01*
X277857Y273323D01*
X277252Y272718D01*
X276345Y272416D01*
X275438D01*
X274531Y272718D01*
X274229Y273020D01*
X273927Y273625D01*
X140941Y280034D02*
Y275500D01*
X141243Y274593D01*
X141848Y273988D01*
X142755Y273686D01*
X143359D01*
X144266Y273988D01*
X144871Y274593D01*
X145173Y275500D01*
Y280034D01*
X147229Y278523D02*
Y278825D01*
X147531Y279430D01*
X147834Y279732D01*
X148438Y280034D01*
X149648D01*
X150252Y279732D01*
X150555Y279430D01*
X150857Y278825D01*
Y278220D01*
X150555Y277616D01*
X149950Y276709D01*
X146927Y273686D01*
X151159D01*
X233968Y167004D02*
Y160656D01*
Y167004D02*
X236689D01*
X237596Y166702D01*
X237898Y166400D01*
X238201Y165795D01*
Y165190D01*
X237898Y164586D01*
X237596Y164284D01*
X236689Y163981D01*
X233968D01*
X236084D02*
X238201Y160656D01*
X243249Y166097D02*
X242947Y166702D01*
X242040Y167004D01*
X241436D01*
X240529Y166702D01*
X239924Y165795D01*
X239622Y164284D01*
Y162772D01*
X239924Y161563D01*
X240529Y160958D01*
X241436Y160656D01*
X241738D01*
X242645Y160958D01*
X243249Y161563D01*
X243552Y162470D01*
Y162772D01*
X243249Y163679D01*
X242645Y164284D01*
X241738Y164586D01*
X241436D01*
X240529Y164284D01*
X239924Y163679D01*
X239622Y162772D01*
X333996Y266064D02*
Y259716D01*
Y266064D02*
X336717D01*
X337624Y265762D01*
X337926Y265460D01*
X338228Y264855D01*
Y264250D01*
X337926Y263646D01*
X337624Y263344D01*
X336717Y263041D01*
X333996D01*
X336112D02*
X338228Y259716D01*
X342672Y266064D02*
X339649Y261832D01*
X344184D01*
X342672Y266064D02*
Y259716D01*
X278267Y202564D02*
Y196216D01*
Y202564D02*
X280988D01*
X281895Y202262D01*
X282197Y201960D01*
X282500Y201355D01*
Y200750D01*
X282197Y200146D01*
X281895Y199844D01*
X280988Y199541D01*
X278267D01*
X280383D02*
X282500Y196216D01*
X284223Y201053D02*
Y201355D01*
X284525Y201960D01*
X284827Y202262D01*
X285432Y202564D01*
X286641D01*
X287246Y202262D01*
X287548Y201960D01*
X287851Y201355D01*
Y200750D01*
X287548Y200146D01*
X286944Y199239D01*
X283920Y196216D01*
X288153D01*
X259973Y34924D02*
Y28576D01*
X263601D01*
X264296Y33715D02*
X264900Y34017D01*
X265807Y34924D01*
Y28576D01*
X97639Y97154D02*
Y92317D01*
X97337Y91410D01*
X97035Y91108D01*
X96430Y90806D01*
X95825D01*
X95221Y91108D01*
X94918Y91410D01*
X94616Y92317D01*
Y92922D01*
X102899Y97154D02*
X99876D01*
X99574Y94433D01*
X99876Y94736D01*
X100783Y95038D01*
X101690D01*
X102597Y94736D01*
X103202Y94131D01*
X103504Y93224D01*
Y92620D01*
X103202Y91713D01*
X102597Y91108D01*
X101690Y90806D01*
X100783D01*
X99876Y91108D01*
X99574Y91410D01*
X99272Y92015D01*
X483568Y19684D02*
Y14847D01*
X483266Y13940D01*
X482963Y13638D01*
X482359Y13336D01*
X481754D01*
X481149Y13638D01*
X480847Y13940D01*
X480545Y14847D01*
Y15452D01*
X488224Y19684D02*
X485201Y15452D01*
X489735D01*
X488224Y19684D02*
Y13336D01*
X483719Y136524D02*
Y131687D01*
X483417Y130780D01*
X483115Y130478D01*
X482510Y130176D01*
X481905D01*
X481301Y130478D01*
X480998Y130780D01*
X480696Y131687D01*
Y132292D01*
X485956Y136524D02*
X489282D01*
X487468Y134106D01*
X488375D01*
X488979Y133804D01*
X489282Y133501D01*
X489584Y132594D01*
Y131990D01*
X489282Y131083D01*
X488677Y130478D01*
X487770Y130176D01*
X486863D01*
X485956Y130478D01*
X485654Y130780D01*
X485352Y131385D01*
X483719Y249554D02*
Y244717D01*
X483417Y243810D01*
X483115Y243508D01*
X482510Y243206D01*
X481905D01*
X481301Y243508D01*
X480998Y243810D01*
X480696Y244717D01*
Y245322D01*
X485654Y248043D02*
Y248345D01*
X485956Y248950D01*
X486259Y249252D01*
X486863Y249554D01*
X488073D01*
X488677Y249252D01*
X488979Y248950D01*
X489282Y248345D01*
Y247740D01*
X488979Y247136D01*
X488375Y246229D01*
X485352Y243206D01*
X489584D01*
X92649Y278764D02*
Y273927D01*
X92347Y273020D01*
X92045Y272718D01*
X91440Y272416D01*
X90836D01*
X90231Y272718D01*
X89929Y273020D01*
X89626Y273927D01*
Y274532D01*
X94282Y277555D02*
X94887Y277857D01*
X95794Y278764D01*
Y272416D01*
X453618Y234314D02*
Y227966D01*
Y234314D02*
X455734D01*
X456641Y234012D01*
X457245Y233407D01*
X457548Y232803D01*
X457850Y231896D01*
Y230384D01*
X457548Y229477D01*
X457245Y228873D01*
X456641Y228268D01*
X455734Y227966D01*
X453618D01*
X459271Y233105D02*
X459875Y233407D01*
X460782Y234314D01*
Y227966D01*
X362479Y173113D02*
X362177Y173717D01*
X361572Y174322D01*
X360968Y174624D01*
X359758D01*
X359154Y174322D01*
X358549Y173717D01*
X358247Y173113D01*
X357945Y172206D01*
Y170694D01*
X358247Y169787D01*
X358549Y169183D01*
X359154Y168578D01*
X359758Y168276D01*
X360968D01*
X361572Y168578D01*
X362177Y169183D01*
X362479Y169787D01*
X365775Y174624D02*
X364868Y174322D01*
X364565Y173717D01*
Y173113D01*
X364868Y172508D01*
X365472Y172206D01*
X366682Y171903D01*
X367589Y171601D01*
X368193Y170996D01*
X368495Y170392D01*
Y169485D01*
X368193Y168880D01*
X367891Y168578D01*
X366984Y168276D01*
X365775D01*
X364868Y168578D01*
X364565Y168880D01*
X364263Y169485D01*
Y170392D01*
X364565Y170996D01*
X365170Y171601D01*
X366077Y171903D01*
X367286Y172206D01*
X367891Y172508D01*
X368193Y173113D01*
Y173717D01*
X367891Y174322D01*
X366984Y174624D01*
X365775D01*
X174519Y117233D02*
X174217Y117837D01*
X173612Y118442D01*
X173008Y118744D01*
X171798D01*
X171194Y118442D01*
X170589Y117837D01*
X170287Y117233D01*
X169985Y116326D01*
Y114814D01*
X170287Y113907D01*
X170589Y113303D01*
X171194Y112698D01*
X171798Y112396D01*
X173008D01*
X173612Y112698D01*
X174217Y113303D01*
X174519Y113907D01*
X179931Y118744D02*
X176908D01*
X176605Y116024D01*
X176908Y116326D01*
X177815Y116628D01*
X178722D01*
X179629Y116326D01*
X180233Y115721D01*
X180535Y114814D01*
Y114210D01*
X180233Y113303D01*
X179629Y112698D01*
X178722Y112396D01*
X177815D01*
X176908Y112698D01*
X176605Y113000D01*
X176303Y113605D01*
X283588Y178193D02*
X283286Y178797D01*
X282681Y179402D01*
X282077Y179704D01*
X280867D01*
X280263Y179402D01*
X279658Y178797D01*
X279356Y178193D01*
X279053Y177286D01*
Y175774D01*
X279356Y174867D01*
X279658Y174263D01*
X280263Y173658D01*
X280867Y173356D01*
X282077D01*
X282681Y173658D01*
X283286Y174263D01*
X283588Y174867D01*
X288395Y179704D02*
X285372Y175472D01*
X289907D01*
X288395Y179704D02*
Y173356D01*
D14*
X221440Y52530D02*
X234769D01*
X85550Y51575D02*
X98879D01*
X92214Y58239D02*
Y44910D01*
M02*
