G04*
G04 #@! TF.GenerationSoftware,Altium Limited,Altium Designer,22.1.2 (22)*
G04*
G04 Layer_Color=36991*
%FSLAX44Y44*%
%MOMM*%
G71*
G04*
G04 #@! TF.SameCoordinates,4243E080-38CA-47FB-8023-FD6126139483*
G04*
G04*
G04 #@! TF.FilePolarity,Positive*
G04*
G01*
G75*
%ADD11C,0.1000*%
%ADD63C,0.0500*%
D11*
X195580Y246460D02*
Y256460D01*
X190580Y251460D02*
X200580D01*
X173990Y246188D02*
Y256188D01*
X168990Y251188D02*
X178990D01*
X152400Y246460D02*
Y256460D01*
X147400Y251460D02*
X157400D01*
X271780Y181690D02*
Y191690D01*
X266780Y186690D02*
X276780D01*
X250190Y181962D02*
Y191962D01*
X245190Y186962D02*
X255190D01*
X228600Y181962D02*
Y191962D01*
X223600Y186962D02*
X233600D01*
X207010Y181190D02*
Y191190D01*
X202010Y186190D02*
X212010D01*
X180420Y186690D02*
X190420D01*
X185420Y181690D02*
Y191690D01*
X33020Y82630D02*
Y92630D01*
X28020Y87630D02*
X38020D01*
X59510Y87630D02*
X69510D01*
X64510Y82630D02*
Y92630D01*
X43260Y137449D02*
X53260D01*
X48260Y132449D02*
Y142449D01*
D63*
X186580Y234188D02*
X204580D01*
X186580Y268732D02*
X204580D01*
Y234188D02*
Y268732D01*
X186580Y234188D02*
Y268732D01*
X164490Y268188D02*
X183490D01*
X164490Y234188D02*
X183490D01*
X164490D02*
Y268188D01*
X183490Y234188D02*
Y268188D01*
X143400Y268732D02*
X161400D01*
X143400Y234188D02*
X161400D01*
X143400D02*
Y268732D01*
X161400Y234188D02*
Y268732D01*
X262280Y203690D02*
X281280D01*
X262280Y169690D02*
X281280D01*
X262280D02*
Y203690D01*
X281280Y169690D02*
Y203690D01*
X241190Y204234D02*
X259190D01*
X241190Y169690D02*
X259190D01*
X241190D02*
Y204234D01*
X259190Y169690D02*
Y204234D01*
X219600Y169690D02*
X237600D01*
X219600Y204234D02*
X237600D01*
Y169690D02*
Y204234D01*
X219600Y169690D02*
Y204234D01*
X198010Y202690D02*
X216010D01*
X198010Y169690D02*
X216010D01*
X198010D02*
Y202690D01*
X216010Y169690D02*
Y202690D01*
X194420Y169690D02*
Y203690D01*
X176420Y169690D02*
Y203690D01*
Y169690D02*
X194420D01*
X176420Y203690D02*
X194420D01*
X23520Y70630D02*
X42520D01*
X23520Y104630D02*
X42520D01*
Y70630D02*
Y104630D01*
X23520Y70630D02*
Y104630D01*
X55010Y70630D02*
Y104630D01*
X74010Y70630D02*
Y104630D01*
X55010D02*
X74010D01*
X55010Y70630D02*
X74010D01*
X22760Y109699D02*
Y153699D01*
X73760Y109699D02*
Y153699D01*
X22760D02*
X73760D01*
X22760Y109699D02*
X73760D01*
M02*
