G04*
G04 #@! TF.GenerationSoftware,Altium Limited,Altium Designer,22.1.2 (22)*
G04*
G04 Layer_Color=128*
%FSLAX44Y44*%
%MOMM*%
G71*
G04*
G04 #@! TF.SameCoordinates,4243E080-38CA-47FB-8023-FD6126139483*
G04*
G04*
G04 #@! TF.FilePolarity,Positive*
G04*
G01*
G75*
%ADD64C,0.0508*%
D64*
X524840Y37030D02*
X534340D01*
X529590Y32280D02*
Y41780D01*
X524840Y62030D02*
X534340D01*
X529590Y57280D02*
Y66780D01*
X524840Y153870D02*
X534340D01*
X529590Y149120D02*
Y158620D01*
X524840Y178870D02*
X534340D01*
X529590Y174120D02*
Y183620D01*
X44050Y242570D02*
X57550D01*
X50800Y235820D02*
Y249320D01*
X44050Y191770D02*
X57550D01*
X50800Y185020D02*
Y198520D01*
X127870Y52070D02*
X141370D01*
X134620Y45320D02*
Y58820D01*
X178670Y52070D02*
X192170D01*
X185420Y45320D02*
Y58820D01*
X445510Y35560D02*
X476510D01*
X461010Y20060D02*
Y51060D01*
X445510Y297180D02*
X476510D01*
X461010Y281680D02*
Y312680D01*
X13710Y295910D02*
X44710D01*
X29210Y280410D02*
Y311410D01*
X524840Y265630D02*
X534340D01*
X529590Y260880D02*
Y270380D01*
X524840Y290630D02*
X534340D01*
X529590Y285880D02*
Y295380D01*
X13710Y35560D02*
X44710D01*
X29210Y20060D02*
Y51060D01*
X331240Y215900D02*
X334240D01*
X332740Y214400D02*
Y217400D01*
X313460Y232410D02*
X316460D01*
X314960Y230910D02*
Y233910D01*
X313460Y242570D02*
X316460D01*
X314960Y241070D02*
Y244070D01*
X362990Y186690D02*
X365990D01*
X364490Y185190D02*
Y188190D01*
X211860Y220980D02*
X214860D01*
X213360Y219480D02*
Y222480D01*
X173760Y275590D02*
X176760D01*
X175260Y274090D02*
Y277090D01*
X484910Y163830D02*
X487910D01*
X486410Y162330D02*
Y165330D01*
X220750Y220980D02*
X223750D01*
X222250Y219480D02*
Y222480D01*
X229640Y220980D02*
X232640D01*
X231140Y219480D02*
Y222480D01*
X173760Y285750D02*
X176760D01*
X175260Y284250D02*
Y287250D01*
X229640Y229870D02*
X232640D01*
X231140Y228370D02*
Y231370D01*
X422680Y278130D02*
X425680D01*
X424180Y276630D02*
Y279630D01*
X229640Y256540D02*
X232640D01*
X231140Y255040D02*
Y258040D01*
X229640Y248920D02*
X232640D01*
X231140Y247420D02*
Y250420D01*
X216940Y285750D02*
X219940D01*
X218440Y284250D02*
Y287250D01*
X313460Y255270D02*
X316460D01*
X314960Y253770D02*
Y256770D01*
X362990Y213360D02*
X365990D01*
X364490Y211860D02*
Y214860D01*
M02*
