G04*
G04 #@! TF.GenerationSoftware,Altium Limited,Altium Designer,22.1.2 (22)*
G04*
G04 Layer_Physical_Order=2*
G04 Layer_Color=16711680*
%FSLAX44Y44*%
%MOMM*%
G71*
G04*
G04 #@! TF.SameCoordinates,4243E080-38CA-47FB-8023-FD6126139483*
G04*
G04*
G04 #@! TF.FilePolarity,Positive*
G04*
G01*
G75*
%ADD15R,1.3000X1.1000*%
%ADD45C,0.6350*%
%ADD46C,0.2540*%
%ADD49C,1.8000*%
%ADD50C,2.2000*%
%ADD51C,3.1000*%
%ADD52C,0.5000*%
%ADD53R,1.4000X0.9000*%
%ADD54R,1.3000X0.7000*%
%ADD55R,1.4000X1.0000*%
%ADD56R,0.6000X1.4000*%
%ADD57R,0.8000X1.4750*%
G36*
X557225Y2845D02*
X2845D01*
Y327155D01*
X557225D01*
Y2845D01*
D02*
G37*
%LPC*%
G36*
X219443Y290790D02*
X217437D01*
X215585Y290023D01*
X215197Y289635D01*
X178503D01*
X178115Y290023D01*
X176262Y290790D01*
X174258D01*
X172405Y290023D01*
X170987Y288605D01*
X170220Y286752D01*
Y284748D01*
X170987Y282895D01*
X172405Y281477D01*
X172695Y281357D01*
Y279983D01*
X172405Y279863D01*
X170987Y278445D01*
X170220Y276593D01*
Y274587D01*
X170268Y274472D01*
X170105Y273654D01*
Y267978D01*
X164450D01*
Y265345D01*
X161440D01*
Y269500D01*
X143360D01*
Y253420D01*
X161440D01*
Y257575D01*
X164450D01*
Y253898D01*
X183530D01*
Y257597D01*
X186540D01*
Y253420D01*
X204620D01*
Y269500D01*
X186540D01*
Y265367D01*
X183530D01*
Y267978D01*
X177875D01*
Y271218D01*
X178115Y271317D01*
X179533Y272735D01*
X180300Y274587D01*
Y276593D01*
X179533Y278445D01*
X178210Y279767D01*
X178122Y280749D01*
X178125Y281156D01*
X178885Y281865D01*
X215197D01*
X215585Y281477D01*
X217437Y280710D01*
X219443D01*
X221295Y281477D01*
X222713Y282895D01*
X223480Y284748D01*
Y286752D01*
X222713Y288605D01*
X221295Y290023D01*
X219443Y290790D01*
D02*
G37*
G36*
X462787Y315220D02*
X459233D01*
X455748Y314527D01*
X452465Y313167D01*
X449510Y311193D01*
X446997Y308680D01*
X445023Y305725D01*
X443663Y302442D01*
X442970Y298957D01*
Y295403D01*
X443663Y291918D01*
X445023Y288635D01*
X446997Y285680D01*
X449510Y283167D01*
X452465Y281193D01*
X455748Y279833D01*
X459233Y279140D01*
X462787D01*
X466272Y279833D01*
X469555Y281193D01*
X472510Y283167D01*
X475023Y285680D01*
X476997Y288635D01*
X478357Y291918D01*
X479050Y295403D01*
Y298957D01*
X478357Y302442D01*
X476997Y305725D01*
X475023Y308680D01*
X472510Y311193D01*
X469555Y313167D01*
X466272Y314527D01*
X462787Y315220D01*
D02*
G37*
G36*
X531109Y302170D02*
X528071D01*
X525136Y301383D01*
X522504Y299864D01*
X520356Y297716D01*
X518837Y295084D01*
X518050Y292149D01*
Y289111D01*
X518837Y286176D01*
X520356Y283544D01*
X522504Y281396D01*
X525136Y279876D01*
X528071Y279090D01*
X531109D01*
X534044Y279876D01*
X536676Y281396D01*
X538824Y283544D01*
X540344Y286176D01*
X541130Y289111D01*
Y292149D01*
X540344Y295084D01*
X538824Y297716D01*
X536676Y299864D01*
X534044Y301383D01*
X531109Y302170D01*
D02*
G37*
G36*
X30987Y313950D02*
X27433D01*
X23948Y313257D01*
X20665Y311897D01*
X17710Y309923D01*
X15197Y307410D01*
X13223Y304455D01*
X11863Y301172D01*
X11170Y297687D01*
Y294133D01*
X11863Y290648D01*
X13223Y287365D01*
X15197Y284410D01*
X17710Y281897D01*
X20665Y279923D01*
X23948Y278563D01*
X27433Y277870D01*
X30987D01*
X34472Y278563D01*
X37755Y279923D01*
X40710Y281897D01*
X43223Y284410D01*
X45197Y287365D01*
X46557Y290648D01*
X47250Y294133D01*
Y297687D01*
X46557Y301172D01*
X45197Y304455D01*
X43223Y307410D01*
X40710Y309923D01*
X37755Y311897D01*
X34472Y313257D01*
X30987Y313950D01*
D02*
G37*
G36*
X531109Y277170D02*
X528071D01*
X525136Y276383D01*
X522504Y274864D01*
X520356Y272716D01*
X518837Y270084D01*
X518050Y267149D01*
Y264111D01*
X518837Y261176D01*
X520356Y258544D01*
X522504Y256396D01*
X525136Y254876D01*
X528071Y254090D01*
X531109D01*
X534044Y254876D01*
X536676Y256396D01*
X538824Y258544D01*
X540344Y261176D01*
X541130Y264111D01*
Y267149D01*
X540344Y270084D01*
X538824Y272716D01*
X536676Y274864D01*
X534044Y276383D01*
X531109Y277170D01*
D02*
G37*
G36*
X315963Y260310D02*
X313958D01*
X312105Y259543D01*
X310687Y258125D01*
X310152Y256833D01*
X310101Y256757D01*
X310083Y256666D01*
X309920Y256273D01*
Y255846D01*
X309805Y255270D01*
X309920Y254694D01*
Y254268D01*
X310083Y253874D01*
X310101Y253783D01*
X310152Y253707D01*
X310687Y252415D01*
X312105Y250997D01*
X313958Y250230D01*
X315963D01*
X317815Y250997D01*
X318203Y251385D01*
X338751D01*
X343665Y246471D01*
X342855Y245485D01*
X341847Y246159D01*
X340360Y246455D01*
X318203D01*
X317815Y246843D01*
X315963Y247610D01*
X313958D01*
X312105Y246843D01*
X310687Y245425D01*
X309920Y243573D01*
Y241567D01*
X310687Y239715D01*
X312105Y238297D01*
X312395Y238177D01*
Y236803D01*
X312105Y236683D01*
X310687Y235265D01*
X309920Y233412D01*
Y231408D01*
X310687Y229555D01*
X312105Y228137D01*
X313958Y227370D01*
X314506D01*
X328210Y213666D01*
X328467Y213045D01*
X329885Y211627D01*
X331738Y210860D01*
X333742D01*
X335595Y211627D01*
X337013Y213045D01*
X337780Y214897D01*
Y216903D01*
X337013Y218755D01*
X335595Y220173D01*
X333742Y220940D01*
X331924D01*
X320000Y232864D01*
Y233412D01*
X319233Y235265D01*
X317910Y236587D01*
X317822Y237569D01*
X317825Y237976D01*
X318585Y238685D01*
X338751D01*
X351715Y225721D01*
Y195580D01*
X352011Y194093D01*
X352853Y192833D01*
X359450Y186236D01*
Y185688D01*
X360217Y183835D01*
X361635Y182417D01*
X363488Y181650D01*
X365493D01*
X367345Y182417D01*
X368763Y183835D01*
X369530Y185688D01*
Y187693D01*
X368763Y189545D01*
X367345Y190963D01*
X365493Y191730D01*
X364944D01*
X359485Y197189D01*
Y209442D01*
X360755Y209968D01*
X361635Y209087D01*
X363488Y208320D01*
X365493D01*
X367345Y209087D01*
X368763Y210505D01*
X369530Y212358D01*
Y214363D01*
X368763Y216215D01*
X368375Y216603D01*
Y231140D01*
X368079Y232627D01*
X367237Y233887D01*
X343107Y258017D01*
X341847Y258859D01*
X340360Y259155D01*
X318203D01*
X317815Y259543D01*
X315963Y260310D01*
D02*
G37*
G36*
X204620Y249500D02*
X196850D01*
Y242730D01*
X204620D01*
Y249500D01*
D02*
G37*
G36*
X194310D02*
X186540D01*
Y242730D01*
X194310D01*
Y249500D01*
D02*
G37*
G36*
X183530Y248478D02*
X175260D01*
Y242708D01*
X183530D01*
Y248478D01*
D02*
G37*
G36*
X172720D02*
X164450D01*
Y242708D01*
X172720D01*
Y248478D01*
D02*
G37*
G36*
X281320Y203480D02*
X273050D01*
Y197710D01*
X281320D01*
Y203480D01*
D02*
G37*
G36*
X270510D02*
X262240D01*
Y197710D01*
X270510D01*
Y203480D01*
D02*
G37*
G36*
X52583Y205310D02*
X52070D01*
Y193040D01*
X64340D01*
Y193553D01*
X63417Y196996D01*
X61635Y200084D01*
X59114Y202605D01*
X56026Y204387D01*
X52583Y205310D01*
D02*
G37*
G36*
X49530D02*
X49017D01*
X45574Y204387D01*
X42486Y202605D01*
X39965Y200084D01*
X38183Y196996D01*
X37260Y193553D01*
Y193040D01*
X49530D01*
Y205310D01*
D02*
G37*
G36*
X281320Y195170D02*
X273050D01*
Y189400D01*
X281320D01*
Y195170D01*
D02*
G37*
G36*
X270510D02*
X262240D01*
Y189400D01*
X270510D01*
Y195170D01*
D02*
G37*
G36*
X429260Y289635D02*
X233680D01*
X232193Y289339D01*
X230933Y288497D01*
X220773Y278337D01*
X219931Y277077D01*
X219635Y275590D01*
Y251460D01*
X219931Y249973D01*
X220773Y248713D01*
X223313Y246173D01*
X224573Y245331D01*
X226060Y245035D01*
X227897D01*
X228285Y244647D01*
X230138Y243880D01*
X232143D01*
X233995Y244647D01*
X235413Y246065D01*
X236180Y247917D01*
Y249923D01*
X235413Y251775D01*
X234458Y252730D01*
X235413Y253685D01*
X236180Y255537D01*
Y257542D01*
X235413Y259395D01*
X235025Y259783D01*
Y268901D01*
X240369Y274245D01*
X420937D01*
X421325Y273857D01*
X423177Y273090D01*
X425182D01*
X427035Y273857D01*
X428453Y275275D01*
X429220Y277127D01*
Y278500D01*
X430490Y279026D01*
X486335Y223181D01*
Y171450D01*
X486596Y170140D01*
X486541Y169996D01*
X485456Y169194D01*
X483970Y169489D01*
X282420D01*
X281320Y169900D01*
Y183980D01*
X262240D01*
Y182005D01*
X259230D01*
Y185002D01*
X241150D01*
Y169489D01*
X237640D01*
Y175692D01*
X219560D01*
Y169489D01*
X217150D01*
X216050Y169900D01*
Y181980D01*
X199465D01*
Y190400D01*
X216050D01*
Y202480D01*
X197970D01*
Y200705D01*
X196633Y200439D01*
X195730Y199835D01*
X194460Y200342D01*
Y204730D01*
X194103D01*
X193617Y205903D01*
X204809Y217095D01*
X210117D01*
X210505Y216707D01*
X212358Y215940D01*
X214363D01*
X216215Y216707D01*
X216975Y217468D01*
X217134Y217572D01*
X218365Y217062D01*
Y204310D01*
X218661Y202823D01*
X219503Y201563D01*
X219560Y201506D01*
Y188922D01*
X237640D01*
Y202517D01*
X238813Y203003D01*
X241150Y200666D01*
Y188922D01*
X259230D01*
Y205002D01*
X247802D01*
X235495Y217308D01*
Y218325D01*
X236180Y219977D01*
Y221982D01*
X235413Y223835D01*
X234652Y224595D01*
X234108Y225425D01*
X234652Y226255D01*
X235413Y227015D01*
X236180Y228867D01*
Y230872D01*
X235413Y232725D01*
X233995Y234143D01*
X232143Y234910D01*
X230138D01*
X228285Y234143D01*
X227897Y233755D01*
X204620D01*
Y240190D01*
X186540D01*
Y233755D01*
X184534D01*
X183530Y234398D01*
X183530Y235025D01*
Y240168D01*
X173990D01*
X164450D01*
Y235025D01*
X164450Y234398D01*
X163447Y233755D01*
X161440D01*
Y249500D01*
X143360D01*
Y233420D01*
X148515D01*
Y232410D01*
X148811Y230923D01*
X149653Y229663D01*
X152193Y227123D01*
X153453Y226281D01*
X154940Y225985D01*
X202324D01*
X202449Y224715D01*
X201713Y224569D01*
X200453Y223727D01*
X182673Y205947D01*
X181860Y204730D01*
X176380D01*
Y188650D01*
X191695D01*
Y184730D01*
X176380D01*
Y174144D01*
X159791Y157555D01*
X92393D01*
X90906Y157259D01*
X89646Y156417D01*
X63292Y130063D01*
X59266D01*
X59232Y130105D01*
Y153105D01*
X59035Y154096D01*
X58473Y154936D01*
X58473Y154936D01*
X53473Y159936D01*
X52633Y160498D01*
X51642Y160695D01*
X44642D01*
X43651Y160498D01*
X42811Y159936D01*
X37811Y154936D01*
X37249Y154096D01*
X37052Y153105D01*
Y130105D01*
X37018Y130063D01*
X27734D01*
Y129532D01*
X26464Y129006D01*
X22337Y133133D01*
Y205866D01*
X46244Y229773D01*
X49017Y229030D01*
X52583D01*
X56026Y229953D01*
X59114Y231735D01*
X61635Y234256D01*
X63417Y237344D01*
X64340Y240787D01*
Y244353D01*
X63417Y247796D01*
X61635Y250884D01*
X59114Y253405D01*
X56026Y255187D01*
X52583Y256110D01*
X49017D01*
X45574Y255187D01*
X42486Y253405D01*
X39965Y250884D01*
X38183Y247796D01*
X37260Y244353D01*
Y240787D01*
X38003Y238014D01*
X12390Y212400D01*
X11127Y210510D01*
X10683Y208280D01*
Y130720D01*
X11127Y128490D01*
X12390Y126600D01*
X20361Y118628D01*
X22252Y117365D01*
X24481Y116921D01*
X27320D01*
Y106159D01*
X26965Y106088D01*
X25075Y104825D01*
X24804Y104420D01*
X23480D01*
Y101268D01*
X23368Y100705D01*
Y98705D01*
X23480Y98142D01*
Y89340D01*
X42560D01*
Y104420D01*
X38974D01*
Y119885D01*
X39101Y120523D01*
Y122573D01*
X38814Y124016D01*
Y125611D01*
X39987Y126097D01*
X41720Y124365D01*
Y122047D01*
X54800D01*
Y124600D01*
X56533Y126333D01*
X57706Y125847D01*
Y110983D01*
X59361D01*
Y104420D01*
X54970D01*
Y89340D01*
X74050D01*
Y104420D01*
X67131D01*
Y110983D01*
X68786D01*
Y124569D01*
X94002Y149785D01*
X161400D01*
X162887Y150081D01*
X164147Y150923D01*
X181874Y168650D01*
X194460D01*
Y172878D01*
X195579Y173101D01*
X196700Y173850D01*
X197656Y173605D01*
X197970Y173475D01*
Y169900D01*
X203125D01*
Y167640D01*
X203421Y166153D01*
X204263Y164893D01*
X206299Y162858D01*
X207559Y162016D01*
X209045Y161720D01*
X481829D01*
X482137Y160975D01*
X483555Y159557D01*
X485407Y158790D01*
X487412D01*
X489265Y159557D01*
X490683Y160975D01*
X491450Y162827D01*
Y163067D01*
X492623Y163553D01*
X505053Y151123D01*
X506313Y150281D01*
X507800Y149985D01*
X518684D01*
X518837Y149416D01*
X520356Y146784D01*
X522504Y144636D01*
X525136Y143117D01*
X528071Y142330D01*
X531109D01*
X534044Y143117D01*
X536676Y144636D01*
X538824Y146784D01*
X540344Y149416D01*
X541130Y152351D01*
Y155389D01*
X540344Y158324D01*
X538824Y160956D01*
X536676Y163104D01*
X534044Y164624D01*
X531109Y165410D01*
X528071D01*
X525136Y164624D01*
X522504Y163104D01*
X520356Y160956D01*
X518837Y158324D01*
X518684Y157755D01*
X509409D01*
X494105Y173059D01*
Y224790D01*
X493809Y226277D01*
X492967Y227537D01*
X432007Y288497D01*
X430747Y289339D01*
X429260Y289635D01*
D02*
G37*
G36*
X531109Y190410D02*
X530860D01*
Y180140D01*
X541130D01*
Y180389D01*
X540344Y183324D01*
X538824Y185956D01*
X536676Y188104D01*
X534044Y189624D01*
X531109Y190410D01*
D02*
G37*
G36*
X528320D02*
X528071D01*
X525136Y189624D01*
X522504Y188104D01*
X520356Y185956D01*
X518837Y183324D01*
X518050Y180389D01*
Y180140D01*
X528320D01*
Y190410D01*
D02*
G37*
G36*
X237640Y185002D02*
X229870D01*
Y178232D01*
X237640D01*
Y185002D01*
D02*
G37*
G36*
X227330D02*
X219560D01*
Y178232D01*
X227330D01*
Y185002D01*
D02*
G37*
G36*
X64340Y190500D02*
X52070D01*
Y178230D01*
X52583D01*
X56026Y179153D01*
X59114Y180935D01*
X61635Y183456D01*
X63417Y186544D01*
X64340Y189987D01*
Y190500D01*
D02*
G37*
G36*
X49530D02*
X37260D01*
Y189987D01*
X38183Y186544D01*
X39965Y183456D01*
X42486Y180935D01*
X45574Y179153D01*
X49017Y178230D01*
X49530D01*
Y190500D01*
D02*
G37*
G36*
X541130Y177600D02*
X530860D01*
Y167330D01*
X531109D01*
X534044Y168116D01*
X536676Y169636D01*
X538824Y171784D01*
X540344Y174416D01*
X541130Y177351D01*
Y177600D01*
D02*
G37*
G36*
X528320D02*
X518050D01*
Y177351D01*
X518837Y174416D01*
X520356Y171784D01*
X522504Y169636D01*
X525136Y168116D01*
X528071Y167330D01*
X528320D01*
Y177600D01*
D02*
G37*
G36*
X54800Y119507D02*
X49530D01*
Y110862D01*
X54800D01*
Y119507D01*
D02*
G37*
G36*
X46990D02*
X41720D01*
Y110862D01*
X46990D01*
Y119507D01*
D02*
G37*
G36*
X74050Y85920D02*
X65780D01*
Y79650D01*
X74050D01*
Y85920D01*
D02*
G37*
G36*
X63240D02*
X54970D01*
Y79650D01*
X63240D01*
Y85920D01*
D02*
G37*
G36*
X42560Y85920D02*
X34290D01*
Y79650D01*
X42560D01*
Y85920D01*
D02*
G37*
G36*
X31750D02*
X23480D01*
Y79650D01*
X31750D01*
Y85920D01*
D02*
G37*
G36*
X74050Y77110D02*
X65780D01*
Y70840D01*
X74050D01*
Y77110D01*
D02*
G37*
G36*
X63240D02*
X54970D01*
Y70840D01*
X63240D01*
Y77110D01*
D02*
G37*
G36*
X42560Y77110D02*
X34290D01*
Y70840D01*
X42560D01*
Y77110D01*
D02*
G37*
G36*
X31750D02*
X23480D01*
Y70840D01*
X31750D01*
Y77110D01*
D02*
G37*
G36*
X531109Y73570D02*
X530860D01*
Y63300D01*
X541130D01*
Y63549D01*
X540344Y66484D01*
X538824Y69116D01*
X536676Y71264D01*
X534044Y72783D01*
X531109Y73570D01*
D02*
G37*
G36*
X528320D02*
X528071D01*
X525136Y72783D01*
X522504Y71264D01*
X520356Y69116D01*
X518837Y66484D01*
X518050Y63549D01*
Y63300D01*
X528320D01*
Y73570D01*
D02*
G37*
G36*
X187203Y65610D02*
X186690D01*
Y53340D01*
X198960D01*
Y53853D01*
X198037Y57296D01*
X196255Y60384D01*
X193734Y62905D01*
X190646Y64687D01*
X187203Y65610D01*
D02*
G37*
G36*
X184150D02*
X183637D01*
X180194Y64687D01*
X177106Y62905D01*
X174585Y60384D01*
X172803Y57296D01*
X171880Y53853D01*
Y53340D01*
X184150D01*
Y65610D01*
D02*
G37*
G36*
X541130Y60760D02*
X530860D01*
Y50490D01*
X531109D01*
X534044Y51276D01*
X536676Y52796D01*
X538824Y54944D01*
X540344Y57576D01*
X541130Y60511D01*
Y60760D01*
D02*
G37*
G36*
X528320D02*
X518050D01*
Y60511D01*
X518837Y57576D01*
X520356Y54944D01*
X522504Y52796D01*
X525136Y51276D01*
X528071Y50490D01*
X528320D01*
Y60760D01*
D02*
G37*
G36*
X198960Y50800D02*
X186690D01*
Y38530D01*
X187203D01*
X190646Y39453D01*
X193734Y41235D01*
X196255Y43756D01*
X198037Y46844D01*
X198960Y50287D01*
Y50800D01*
D02*
G37*
G36*
X184150D02*
X171880D01*
Y50287D01*
X172803Y46844D01*
X174585Y43756D01*
X177106Y41235D01*
X180194Y39453D01*
X183637Y38530D01*
X184150D01*
Y50800D01*
D02*
G37*
G36*
X136403Y65610D02*
X132837D01*
X129394Y64687D01*
X126306Y62905D01*
X123785Y60384D01*
X122003Y57296D01*
X121080Y53853D01*
Y50287D01*
X122003Y46844D01*
X123785Y43756D01*
X126306Y41235D01*
X129394Y39453D01*
X132837Y38530D01*
X136403D01*
X139846Y39453D01*
X142934Y41235D01*
X145455Y43756D01*
X147237Y46844D01*
X148160Y50287D01*
Y53853D01*
X147237Y57296D01*
X145455Y60384D01*
X142934Y62905D01*
X139846Y64687D01*
X136403Y65610D01*
D02*
G37*
G36*
X531109Y48570D02*
X528071D01*
X525136Y47783D01*
X522504Y46264D01*
X520356Y44116D01*
X518837Y41484D01*
X518050Y38549D01*
Y35511D01*
X518837Y32576D01*
X520356Y29944D01*
X522504Y27796D01*
X525136Y26277D01*
X528071Y25490D01*
X531109D01*
X534044Y26277D01*
X536676Y27796D01*
X538824Y29944D01*
X540344Y32576D01*
X541130Y35511D01*
Y38549D01*
X540344Y41484D01*
X538824Y44116D01*
X536676Y46264D01*
X534044Y47783D01*
X531109Y48570D01*
D02*
G37*
G36*
X462787Y53600D02*
X459233D01*
X455748Y52907D01*
X452465Y51547D01*
X449510Y49573D01*
X446997Y47060D01*
X445023Y44105D01*
X443663Y40822D01*
X442970Y37337D01*
Y33783D01*
X443663Y30298D01*
X445023Y27015D01*
X446997Y24060D01*
X449510Y21547D01*
X452465Y19573D01*
X455748Y18213D01*
X459233Y17520D01*
X462787D01*
X466272Y18213D01*
X469555Y19573D01*
X472510Y21547D01*
X475023Y24060D01*
X476997Y27015D01*
X478357Y30298D01*
X479050Y33783D01*
Y37337D01*
X478357Y40822D01*
X476997Y44105D01*
X475023Y47060D01*
X472510Y49573D01*
X469555Y51547D01*
X466272Y52907D01*
X462787Y53600D01*
D02*
G37*
G36*
X30987D02*
X27433D01*
X23948Y52907D01*
X20665Y51547D01*
X17710Y49573D01*
X15197Y47060D01*
X13223Y44105D01*
X11863Y40822D01*
X11170Y37337D01*
Y33783D01*
X11863Y30298D01*
X13223Y27015D01*
X15197Y24060D01*
X17710Y21547D01*
X20665Y19573D01*
X23948Y18213D01*
X27433Y17520D01*
X30987D01*
X34472Y18213D01*
X37755Y19573D01*
X40710Y21547D01*
X43223Y24060D01*
X45197Y27015D01*
X46557Y30298D01*
X47250Y33783D01*
Y37337D01*
X46557Y40822D01*
X45197Y44105D01*
X43223Y47060D01*
X40710Y49573D01*
X37755Y51547D01*
X34472Y52907D01*
X30987Y53600D01*
D02*
G37*
%LPD*%
G36*
X56642Y153105D02*
Y130105D01*
X51642Y125105D01*
X44642D01*
X39642Y130105D01*
Y153105D01*
X44642Y158105D01*
X51642D01*
X56642Y153105D01*
D02*
G37*
D15*
X195580Y241460D02*
D03*
Y261460D02*
D03*
X152400Y261460D02*
D03*
Y241460D02*
D03*
X250190Y196962D02*
D03*
Y176962D02*
D03*
X228600Y176962D02*
D03*
Y196962D02*
D03*
X185420Y176690D02*
D03*
Y196690D02*
D03*
D45*
X16510Y130720D02*
X24481Y122748D01*
X33099D01*
X33274Y120523D02*
Y122573D01*
X33099Y122748D02*
X33274Y122573D01*
X16510Y130720D02*
Y208280D01*
X29195Y98705D02*
Y100705D01*
Y98705D02*
X31020Y96880D01*
X33020D01*
X33147Y97007D01*
Y120396D02*
X33274Y120523D01*
X33147Y97007D02*
Y120396D01*
X16510Y208280D02*
X50800Y242570D01*
D46*
X332269Y216371D02*
X332740Y215900D01*
X314960Y232410D02*
X330999Y216371D01*
X332269D01*
X207010Y167640D02*
X209045Y165605D01*
X485744Y163830D02*
X486410D01*
X483970Y165605D02*
X485744Y163830D01*
X209045Y165605D02*
X483970D01*
X207010Y167640D02*
Y176530D01*
X340360Y242570D02*
X355600Y227330D01*
X314960Y242570D02*
X340360D01*
X355600Y195580D02*
Y227330D01*
Y195580D02*
X364490Y186690D01*
X203200Y220980D02*
X213360D01*
X185420Y203200D02*
X203200Y220980D01*
X185420Y196690D02*
Y203200D01*
X173990Y261482D02*
Y273654D01*
X175260Y274924D01*
Y275590D01*
X63246Y98144D02*
X64510Y96880D01*
X63246Y98144D02*
Y120523D01*
Y124523D02*
X92393Y153670D01*
X63246Y120523D02*
Y124523D01*
X92393Y153670D02*
X161400D01*
X184420Y176690D02*
X185420D01*
X161400Y153670D02*
X184420Y176690D01*
X206830Y196850D02*
X207010Y197030D01*
X198120Y196850D02*
X206830D01*
X194092Y176690D02*
X195580Y178178D01*
X185420Y176690D02*
X194092D01*
X195580Y178178D02*
Y194310D01*
X198120Y196850D01*
X223370Y202190D02*
Y203190D01*
X222250Y204310D02*
X223370Y203190D01*
X227600Y197960D02*
X228600D01*
X223370Y202190D02*
X227600Y197960D01*
X222250Y204310D02*
Y220980D01*
X231611Y215699D02*
Y220509D01*
Y215699D02*
X249190Y198120D01*
X231140Y220980D02*
X231611Y220509D01*
X249190Y198120D02*
X250190D01*
Y178120D02*
X271690D01*
X271780Y178210D01*
X173990Y261482D02*
X175840D01*
X175260Y285750D02*
X218440D01*
X175840Y261482D02*
X195558D01*
X154940Y229870D02*
X231140D01*
X152400Y232410D02*
X154940Y229870D01*
X152400Y232410D02*
Y241460D01*
X195558Y261482D02*
X195580Y261460D01*
X173968Y261460D02*
X173990Y261482D01*
X152400Y261460D02*
X173968D01*
X238760Y278130D02*
X424180D01*
X231140Y270510D02*
X238760Y278130D01*
X231140Y256540D02*
Y270510D01*
X223520Y251460D02*
X226060Y248920D01*
X231140D01*
X223520Y251460D02*
Y275590D01*
X233680Y285750D01*
X490220Y171450D02*
X507800Y153870D01*
X529590D01*
X490220Y171450D02*
Y224790D01*
X233680Y285750D02*
X429260D01*
X490220Y224790D01*
X314960Y255270D02*
X340360D01*
X313690D02*
X314960D01*
X340360D02*
X364490Y231140D01*
Y213360D02*
Y231140D01*
D49*
X529590Y37030D02*
D03*
Y62030D02*
D03*
Y153870D02*
D03*
Y178870D02*
D03*
Y265630D02*
D03*
Y290630D02*
D03*
D50*
X50800Y242570D02*
D03*
Y191770D02*
D03*
X134620Y52070D02*
D03*
X185420D02*
D03*
D51*
X461010Y35560D02*
D03*
Y297180D02*
D03*
X29210Y295910D02*
D03*
Y35560D02*
D03*
D52*
X332740Y215900D02*
D03*
X314960Y232410D02*
D03*
Y242570D02*
D03*
X364490Y186690D02*
D03*
X213360Y220980D02*
D03*
X175260Y275590D02*
D03*
X486410Y163830D02*
D03*
X222250Y220980D02*
D03*
X231140D02*
D03*
X175260Y285750D02*
D03*
X231140Y229870D02*
D03*
X424180Y278130D02*
D03*
X231140Y256540D02*
D03*
Y248920D02*
D03*
X218440Y285750D02*
D03*
X314960Y255270D02*
D03*
X364490Y213360D02*
D03*
D53*
X173990Y260938D02*
D03*
Y241438D02*
D03*
X271780Y196440D02*
D03*
Y176940D02*
D03*
D54*
X207010Y196440D02*
D03*
Y175940D02*
D03*
D55*
X33020Y78380D02*
D03*
Y96880D02*
D03*
X64510Y96880D02*
D03*
Y78380D02*
D03*
D56*
X33274Y120523D02*
D03*
X63246D02*
D03*
D57*
X48260Y120777D02*
D03*
M02*
