G04*
G04 #@! TF.GenerationSoftware,Altium Limited,Altium Designer,22.1.2 (22)*
G04*
G04 Layer_Color=32768*
%FSLAX44Y44*%
%MOMM*%
G71*
G04*
G04 #@! TF.SameCoordinates,4243E080-38CA-47FB-8023-FD6126139483*
G04*
G04*
G04 #@! TF.FilePolarity,Positive*
G04*
G01*
G75*
%ADD11C,0.1000*%
%ADD63C,0.0500*%
D11*
X334526Y237490D02*
X344526D01*
X339526Y232490D02*
Y242490D01*
X145720Y237330D02*
Y247330D01*
X140720Y242330D02*
X150720D01*
X135890Y153280D02*
Y163280D01*
X130890Y158280D02*
X140890D01*
X238760Y143590D02*
Y153590D01*
X233760Y148590D02*
X243760D01*
X307340Y197930D02*
Y205930D01*
X303340Y201930D02*
X311340D01*
X306150Y180340D02*
X316150D01*
X311150Y175340D02*
Y185340D01*
X182960Y164530D02*
X192960D01*
X187960Y159530D02*
Y169530D01*
X273050Y235030D02*
Y245030D01*
X268050Y240030D02*
X278050D01*
X405130Y196930D02*
Y206930D01*
X400130Y201930D02*
X410130D01*
X341630Y182960D02*
Y192960D01*
X336630Y187960D02*
X346630D01*
X453470Y198120D02*
X463470D01*
X458470Y193120D02*
Y203120D01*
X332740Y78820D02*
Y88820D01*
X327740Y83820D02*
X337740D01*
D63*
X348526Y220490D02*
Y254490D01*
X330526Y220490D02*
Y254490D01*
X348526D01*
X330526Y220490D02*
X348526D01*
X108970Y269830D02*
X182470D01*
X108970Y214830D02*
X182470D01*
X108970D02*
Y269830D01*
X182470Y214830D02*
Y269830D01*
X111640Y113280D02*
X159890D01*
X111640Y203530D02*
X159890D01*
X111640Y113280D02*
Y203530D01*
X159890Y113280D02*
Y203530D01*
X554090Y11530D02*
Y87530D01*
X494590D02*
X554090D01*
X494590Y11530D02*
Y87530D01*
Y11530D02*
X554090D01*
Y128370D02*
Y204370D01*
X494590D02*
X554090D01*
X494590Y128370D02*
Y204370D01*
Y128370D02*
X554090D01*
X221760Y157590D02*
X255760D01*
X221760Y139590D02*
X255760D01*
X221760D02*
Y157590D01*
X255760Y139590D02*
Y157590D01*
X4300Y160670D02*
Y268670D01*
Y160670D02*
X97300D01*
Y268670D01*
X4300D02*
X97300D01*
X294340Y195430D02*
X320340D01*
X294340Y208430D02*
X320340D01*
Y195430D02*
Y208430D01*
X294340Y195430D02*
Y208430D01*
X294661Y189340D02*
X327650D01*
X294661Y171416D02*
Y189340D01*
Y171416D02*
X327650D01*
Y189340D01*
X108520Y5570D02*
X216520D01*
Y98570D01*
X108520D02*
X216520D01*
X108520Y5570D02*
Y98570D01*
X206210Y125530D02*
Y203530D01*
X168960Y125530D02*
Y203530D01*
Y125530D02*
X206210D01*
X168960Y203530D02*
X206210D01*
X554090Y240130D02*
Y316130D01*
X494590D02*
X554090D01*
X494590Y240130D02*
Y316130D01*
Y240130D02*
X554090D01*
X236050Y212530D02*
X310050D01*
X236050Y267530D02*
X310050D01*
Y212530D02*
Y267530D01*
X236050Y212530D02*
Y267530D01*
X368330Y172930D02*
X441930D01*
X368330Y230930D02*
X441930D01*
Y172930D02*
Y230930D01*
X368330Y172930D02*
Y230930D01*
X330130Y164960D02*
X353130D01*
X330130Y210960D02*
X353130D01*
X330130Y164960D02*
Y210960D01*
X353130Y164960D02*
Y210960D01*
X468122Y174244D02*
Y221742D01*
X448818Y174244D02*
Y221742D01*
X468122D01*
X453644Y174244D02*
X463296D01*
X468122D01*
X448818D02*
X453644D01*
X307086Y5334D02*
X332740D01*
X236728Y64516D02*
Y83820D01*
Y64516D02*
X307086Y5334D01*
X332740Y162306D02*
X358394D01*
X428752Y83820D02*
Y103124D01*
X358394Y162306D02*
X428752Y103124D01*
X307086Y162306D02*
X332740D01*
X236728Y83820D02*
Y103124D01*
X307086Y162306D01*
X332740Y5334D02*
X358394D01*
X428752Y64516D02*
Y83820D01*
X358394Y5334D02*
X428752Y64516D01*
M02*
