G04*
G04 #@! TF.GenerationSoftware,Altium Limited,Altium Designer,22.1.2 (22)*
G04*
G04 Layer_Color=255*
%FSLAX44Y44*%
%MOMM*%
G71*
G04*
G04 #@! TF.SameCoordinates,4243E080-38CA-47FB-8023-FD6126139483*
G04*
G04*
G04 #@! TF.FilePolarity,Positive*
G04*
G01*
G75*
%ADD15R,1.3000X1.1000*%
%ADD16R,1.5500X0.6000*%
%ADD17R,2.4300X2.3700*%
%ADD18R,1.1000X1.3000*%
%ADD19R,0.5500X0.8000*%
%ADD20R,1.1500X1.4500*%
%ADD21R,2.2300X2.3700*%
%ADD22R,1.1400X0.4200*%
%ADD23R,1.2700X0.6100*%
%ADD24R,1.7500X1.6000*%
%ADD25R,1.2200X0.9100*%
%ADD26R,2.9200X2.7900*%
%ADD49C,1.8000*%
%ADD50C,2.2000*%
%ADD51C,3.1000*%
D15*
X339526Y247490D02*
D03*
Y227490D02*
D03*
D16*
X118720Y261380D02*
D03*
Y248680D02*
D03*
Y235980D02*
D03*
Y223280D02*
D03*
X172720Y261380D02*
D03*
Y248680D02*
D03*
Y235980D02*
D03*
Y223280D02*
D03*
D17*
X135890Y127080D02*
D03*
Y189480D02*
D03*
D18*
X228760Y148590D02*
D03*
X248760D02*
D03*
D19*
X315090Y201930D02*
D03*
X299590D02*
D03*
D20*
X320150Y180340D02*
D03*
X302150D02*
D03*
D21*
X187960Y139830D02*
D03*
Y189230D02*
D03*
D22*
X298750Y217805D02*
D03*
Y224155D02*
D03*
Y230505D02*
D03*
Y236855D02*
D03*
Y243205D02*
D03*
Y249555D02*
D03*
Y255905D02*
D03*
Y262255D02*
D03*
X247350Y217805D02*
D03*
Y224155D02*
D03*
Y230505D02*
D03*
Y236855D02*
D03*
Y243205D02*
D03*
Y249555D02*
D03*
Y255905D02*
D03*
Y262255D02*
D03*
D23*
X431830Y182880D02*
D03*
Y195580D02*
D03*
Y208280D02*
D03*
Y220980D02*
D03*
X378430Y182880D02*
D03*
Y195580D02*
D03*
Y208280D02*
D03*
Y220980D02*
D03*
D24*
X341630Y173960D02*
D03*
Y201960D02*
D03*
D25*
X458470Y214470D02*
D03*
Y181770D02*
D03*
D26*
X255440Y83820D02*
D03*
X410040D02*
D03*
D49*
X529590Y37030D02*
D03*
Y62030D02*
D03*
Y153870D02*
D03*
Y178870D02*
D03*
Y265630D02*
D03*
Y290630D02*
D03*
D50*
X50800Y242570D02*
D03*
Y191770D02*
D03*
X134620Y52070D02*
D03*
X185420D02*
D03*
D51*
X461010Y35560D02*
D03*
Y297180D02*
D03*
X29210Y295910D02*
D03*
Y35560D02*
D03*
M02*
