G04*
G04 #@! TF.GenerationSoftware,Altium Limited,Altium Designer,22.1.2 (22)*
G04*
G04 Layer_Color=8388736*
%FSLAX44Y44*%
%MOMM*%
G71*
G04*
G04 #@! TF.SameCoordinates,4243E080-38CA-47FB-8023-FD6126139483*
G04*
G04*
G04 #@! TF.FilePolarity,Negative*
G04*
G01*
G75*
%ADD28R,1.5032X1.3032*%
%ADD29R,1.7532X0.8032*%
%ADD30R,2.6332X2.5732*%
%ADD31R,1.3032X1.5032*%
%ADD32R,0.7532X1.0032*%
%ADD33R,1.3532X1.6532*%
%ADD34R,2.4332X2.5732*%
%ADD35R,1.6500X0.9300*%
%ADD36R,1.4732X0.8132*%
%ADD37R,1.9532X1.8032*%
%ADD38R,1.4232X1.1132*%
%ADD39R,3.1232X2.9932*%
%ADD40R,4.0132X1.8532*%
%ADD41C,2.0032*%
%ADD42C,2.4032*%
%ADD43C,3.3032*%
%ADD44C,0.7032*%
D28*
X339526Y247490D02*
D03*
Y227490D02*
D03*
D29*
X118720Y261380D02*
D03*
Y248680D02*
D03*
Y235980D02*
D03*
Y223280D02*
D03*
X172720Y261380D02*
D03*
Y248680D02*
D03*
Y235980D02*
D03*
Y223280D02*
D03*
D30*
X135890Y127080D02*
D03*
Y189480D02*
D03*
D31*
X228760Y148590D02*
D03*
X248760D02*
D03*
D32*
X315090Y201930D02*
D03*
X299590D02*
D03*
D33*
X320150Y180340D02*
D03*
X302150D02*
D03*
D34*
X187960Y139830D02*
D03*
Y189230D02*
D03*
D35*
X298750Y217805D02*
D03*
Y224155D02*
D03*
Y230505D02*
D03*
Y236855D02*
D03*
Y243205D02*
D03*
Y249555D02*
D03*
Y255905D02*
D03*
Y262255D02*
D03*
X247350Y217805D02*
D03*
Y224155D02*
D03*
Y230505D02*
D03*
Y236855D02*
D03*
Y243205D02*
D03*
Y249555D02*
D03*
Y255905D02*
D03*
Y262255D02*
D03*
D36*
X431830Y182880D02*
D03*
Y195580D02*
D03*
Y208280D02*
D03*
Y220980D02*
D03*
X378430Y182880D02*
D03*
Y195580D02*
D03*
Y208280D02*
D03*
Y220980D02*
D03*
D37*
X341630Y173960D02*
D03*
Y201960D02*
D03*
D38*
X458470Y214470D02*
D03*
Y181770D02*
D03*
D39*
X255440Y83820D02*
D03*
X410040D02*
D03*
D40*
X411958Y190396D02*
D03*
Y213500D02*
D03*
D41*
X529590Y37030D02*
D03*
Y62030D02*
D03*
Y153870D02*
D03*
Y178870D02*
D03*
Y265630D02*
D03*
Y290630D02*
D03*
D42*
X50800Y242570D02*
D03*
Y191770D02*
D03*
X134620Y52070D02*
D03*
X185420D02*
D03*
D43*
X461010Y35560D02*
D03*
Y297180D02*
D03*
X29210Y295910D02*
D03*
Y35560D02*
D03*
D44*
X332740Y215900D02*
D03*
X314960Y232410D02*
D03*
Y242570D02*
D03*
X364490Y186690D02*
D03*
X213360Y220980D02*
D03*
X175260Y275590D02*
D03*
X486410Y163830D02*
D03*
X222250Y220980D02*
D03*
X231140D02*
D03*
X175260Y285750D02*
D03*
X231140Y229870D02*
D03*
X424180Y278130D02*
D03*
X231140Y256540D02*
D03*
Y248920D02*
D03*
X218440Y285750D02*
D03*
X314960Y255270D02*
D03*
X364490Y213360D02*
D03*
M02*
