G04*
G04 #@! TF.GenerationSoftware,Altium Limited,Altium Designer,22.1.2 (22)*
G04*
G04 Layer_Color=10066329*
%FSLAX44Y44*%
%MOMM*%
G71*
G04*
G04 #@! TF.SameCoordinates,4243E080-38CA-47FB-8023-FD6126139483*
G04*
G04*
G04 #@! TF.FilePolarity,Positive*
G04*
G01*
G75*
%ADD15R,1.3000X1.1000*%
%ADD53R,1.4000X0.9000*%
%ADD54R,1.3000X0.7000*%
%ADD55R,1.4000X1.0000*%
%ADD56R,0.6000X1.4000*%
%ADD57R,0.8000X1.4750*%
G36*
X56642Y153105D02*
Y130105D01*
X51642Y125105D01*
X44642D01*
X39642Y130105D01*
Y153105D01*
X44642Y158105D01*
X51642D01*
X56642Y153105D01*
D02*
G37*
D15*
X195580Y241460D02*
D03*
Y261460D02*
D03*
X152400Y261460D02*
D03*
Y241460D02*
D03*
X250190Y196962D02*
D03*
Y176962D02*
D03*
X228600Y176962D02*
D03*
Y196962D02*
D03*
X185420Y176690D02*
D03*
Y196690D02*
D03*
D53*
X173990Y260938D02*
D03*
Y241438D02*
D03*
X271780Y196440D02*
D03*
Y176940D02*
D03*
D54*
X207010Y196440D02*
D03*
Y175940D02*
D03*
D55*
X33020Y78380D02*
D03*
Y96880D02*
D03*
X64510Y96880D02*
D03*
Y78380D02*
D03*
D56*
X33274Y120523D02*
D03*
X63246D02*
D03*
D57*
X48260Y120777D02*
D03*
M02*
